<?xml version="1.0" encoding="utf-8"?>
<!-- Generator: Adobe Illustrator 17.0.0, SVG Export Plug-In . SVG Version: 6.00 Build 0)  -->
<!DOCTYPE svg PUBLIC "-//W3C//DTD SVG 1.1//EN" "http://www.w3.org/Graphics/SVG/1.1/DTD/svg11.dtd">
<svg version="1.1" id="Layer_1" xmlns="http://www.w3.org/2000/svg" xmlns:xlink="http://www.w3.org/1999/xlink" x="0px" y="0px"
	 width="297.72px" height="498.828px" viewBox="0 0 297.72 498.828" enable-background="new 0 0 297.72 498.828"
	 xml:space="preserve">
<path fill="#1F1F1F" d="M266.545,300.364c6.831-1.531,24.435-2.92,29.934-8.929c1.984-2.154-5.443-11.197-12.614-15.109
	c-3.572-1.956-5.641-3.033-6.831-3.628c-0.028,0.425-0.113,0.964-0.227,1.587l-0.312,1.587c-1.871,9.496-3.317,16.809-9.978,23.754
	c-0.085,0.113-0.198,0.198-0.283,0.312C266.318,300.081,266.431,300.223,266.545,300.364L266.545,300.364z"/>
<path d="M267.14,299.372c1.474-0.312,3.317-0.624,5.386-0.935c7.965-1.304,19.332-3.146,23.301-7.455
	c0.454-0.595-0.51-2.409-2.183-4.677c-1.871-2.466-4.677-5.244-7.682-7.398c-0.907-0.652-1.842-1.247-2.75-1.757
	c-3.118-1.672-5.102-2.721-6.321-3.345c0.198-1.077,0.198-1.814,0.028-2.324c0.992,0.482,3.146,1.587,7.625,4.025
	c0.964,0.539,1.928,1.162,2.891,1.814c3.09,2.211,5.981,5.074,7.909,7.654c2.069,2.75,2.976,5.329,1.956,6.746l-0.057,0.057
	l-0.113,0.142c-4.649,5.017-16.554,6.945-24.888,8.306c-2.268,0.369-4.28,0.709-5.698,1.02c-0.369,0.085-0.709,0.028-0.879-0.227
	l-0.283-0.397c0.397-0.283,0.765-0.595,1.134-0.992c0.17-0.17,0.312-0.312,0.454-0.482l0,0L267.14,299.372z"/>
<path fill="#426FA7" d="M230.034,240.553c-12.869,11.254-17.603,28.063-0.482,47.707c5.131,3.26,21.515,6.803,29.764,9.213
	c0.057,0.028,3.345,2.239,4.677,2.976c1.389,0.765,4.45-0.624,5.272-3.061c2.211-6.661,8.731-18.425,7.654-24.236
	c-0.227-1.162-3.515-5.613-3.883-5.726c-1.134-0.312-3.373,1.219-4.28,0.624C257.36,260.367,244.633,251.665,230.034,240.553
	L230.034,240.553z"/>
<path fill="#2B5383" d="M226.009,283.838c1.049,1.446,2.239,2.92,3.543,4.422c5.131,3.26,21.515,6.803,29.764,9.213
	c0.057,0.028,3.345,2.239,4.677,2.976c0.964,0.539,2.721,0.028,3.997-1.134c-0.057-0.935-0.255-1.644-0.454-1.786
	c-2.495-2.154-1.531-3.6-1.361-5.613c0.142-1.474,2.069-8.05,2.069-8.135c-0.255-6.69-2.466,6.973-9.553,5.499
	c-2.466-0.482-14.258-5.386-15.931-6.576c-3.883-2.778-6.066-2.665-6.576-9.156c-0.198-2.494-3.345-21.912-5.017-21.742
	c0.057,0,0.113,0.142-0.057,0.198c-5.471-3.146-4.252,2.154-5.131,5.159c-2.013,6.86-0.964,10.715-0.964,17.858
	C225.017,276.582,225.357,280.182,226.009,283.838L226.009,283.838z"/>
<path d="M226.945,239.533c-0.454-0.34-0.539-0.964-0.198-1.389c0.34-0.454,0.964-0.539,1.389-0.198
	c7.597,5.783,15.761,11.707,22.422,16.384c6.633,4.677,12.869,8.929,18.765,12.898c0.057,0.028,0.709-0.17,1.332-0.397
	c0.907-0.283,1.842-0.595,2.636-0.368c0.397,0.113,1.843,1.786,2.948,3.402c0.794,1.219,1.531,2.466,1.644,3.09
	c0.822,4.422-2.239,11.594-4.904,17.858c-1.105,2.551-2.126,4.961-2.778,6.888l0,0c-0.085,0.283-0.227,0.595-0.397,0.879
	c-0.595,1.105-1.616,1.984-2.636,2.494c-1.105,0.567-2.324,0.737-3.231,0.425c-0.17-0.057-0.312-0.113-0.425-0.17l-0.057-0.057
	c-1.02-0.567-2.92-1.814-3.969-2.494l-0.057-0.028c-0.283-0.198-0.255-0.283-0.397-0.312l0,0c-2.324-0.68-5.216-1.446-8.306-2.239
	c-8.816-2.296-22.819-7.937-26.022-10.545c-0.425-0.368-0.482-0.992-0.142-1.417s0.992-0.482,1.417-0.142
	c2.863,2.353,16.639,7.937,25.228,10.176c3.175,0.822,6.094,1.587,8.391,2.268c0.17,0.057,0.454,0.255,0.907,0.539l0.057,0.028
	c1.049,0.68,2.948,1.928,3.855,2.438l0.057,0.028c0.028,0.028,0.057,0.028,0.085,0.028c0.425,0.142,1.049,0.028,1.701-0.312
	c0.709-0.34,1.389-0.935,1.814-1.672c0.085-0.17,0.17-0.34,0.227-0.539h0.028c0.652-2.041,1.701-4.479,2.806-7.058
	c2.551-5.981,5.499-12.898,4.791-16.696c-0.057-0.34-0.652-1.304-1.361-2.324c-0.879-1.304-1.786-2.608-1.814-2.608
	c-0.227-0.057-0.85,0.142-1.474,0.34c-1.106,0.368-2.183,0.737-3.09,0.142c-5.868-3.969-12.104-8.192-18.794-12.898
	C242.734,251.268,234.57,245.344,226.945,239.533L226.945,239.533z"/>
<path fill="#5E9DE9" d="M274.312,274.597c-13.238-3.487-15.987-6.576-25.597-15.222c-11.055-9.95-18.85-9.043-18.765-9.043
	c3.345-0.113,12.189,6.378,13.521,11.254c0.482,1.842,11.48,15.562,16.299,15.364C268.699,276.61,262.321,281.344,274.312,274.597
	L274.312,274.597z"/>
<path d="M270.626,275.023c-2.013,3.685-2.239,5.924-3.685,9.439c-1.928,4.422-6.888,10.091-10.29,13.521
	c4.932-2.948,10.035-7.852,12.104-13.266c0.737-2.126,1.191-4.422,1.559-6.661c0.142-0.709,0.595-2.863,0.595-3.402L270.626,275.023
	z"/>
<path fill="#FFFFFF" d="M155.115,423.87c7.88-11.197,20.721-29.424,36.425-27.921c-0.454,2.183-1.049,5.726-1.984,7.625
	c-1.474,2.976-1.871,3.742-2.353,7.143c-0.397,2.835-0.964,6.236-1.644,9.014c-0.595,2.353-0.907,3.798-1.247,6.208
	c-0.085,0.68-0.17,1.304-0.312,1.956c-1.134,5.414-2.324,10.97-1.757,16.526c0.17,1.672,0.028,3.798,0.057,5.556
	c0.028,3.515,0.227,6.945,0.737,10.403c0.17,0.964,0.17,0.85-1.02,0.907c-1.786,0.142-1.417,0.085-2.92-0.765
	c-2.324-1.304-3.402,1.219-5.386-0.085c-0.879-0.595-1.417-0.709-2.466-0.482c-1.304,0.283-1.587,0.34-2.863-0.028
	c-1.616-0.482-2.353,0.567-3.317,1.701c-1.446,1.729-2.041,0.822-3.458-0.255c-2.409-1.843-3.288,0.425-5.131,0.028
	c-0.454-0.113-0.879-0.227-1.332-0.312c0.085-2.976-0.085-2.721-0.737-5.443c-0.879-3.94,0.992-5.159,0.425-8.901
	c-0.34-2.126-0.794-4.394-1.276-6.463c-0.567-2.636,1.417-4.11-0.907-7.625c-1.587-2.296-1.389-3.118,0.17-5.528
	C153.527,426.024,154.349,424.947,155.115,423.87L155.115,423.87z"/>
<path fill="#A3C6C4" d="M155.115,423.87c2.75-3.883,6.066-8.617,9.921-13.068c7.285-5.443,15.449-10.006,19.786-9.836
	c0.709,0.028,3.373-0.935,5.924-1.105c-0.34,1.389-0.709,2.75-1.191,3.713c-1.361,2.75-1.814,3.6-2.239,6.435
	c-0.312-0.057-0.652-0.142-0.964-0.255c-0.057-0.17,0-0.198,0.057-0.368c-1.814,4.592-4.535,7.654-6.831,13.918
	c-2.239,6.066-10.431,7.37-12.359,19.134c-0.482,2.976-5.896,11.395-2.268,12.586c0.198,0.085,5.669,2.75,7.087,4.819
	c-0.255,0-0.51,0.028-0.794,0.113c-1.304,0.283-1.587,0.34-2.863-0.028c-1.616-0.482-2.353,0.567-3.317,1.701
	c-1.446,1.729-2.041,0.822-3.458-0.255c-2.409-1.843-3.288,0.425-5.131,0.028c-0.454-0.113-0.879-0.227-1.332-0.312
	c0.085-2.976-0.085-2.721-0.737-5.443c-0.879-3.94,0.992-5.159,0.425-8.901c-0.34-2.126-0.794-4.394-1.276-6.463
	c-0.567-2.636,1.417-4.11-0.907-7.625c-1.587-2.296-1.389-3.118,0.17-5.528C153.527,426.024,154.349,424.947,155.115,423.87
	L155.115,423.87z"/>
<path d="M154.293,423.331l0.057-0.085c8.022-11.395,21.033-29.849,37.276-28.29c0.539,0.057,0.964,0.539,0.907,1.077l-0.028,0.113
	l-0.198,1.105c-0.425,2.183-0.992,5.017-1.843,6.746l-0.085,0.142c-1.361,2.778-1.729,3.515-2.183,6.718
	c-0.198,1.531-0.482,3.232-0.794,4.932c-0.255,1.446-0.567,2.891-0.879,4.167l0,0c-0.283,1.162-0.51,2.098-0.709,3.061
	s-0.34,1.899-0.51,3.061c-0.028,0.369-0.085,0.709-0.142,1.02c-0.057,0.368-0.113,0.709-0.198,0.992l-0.028,0.17
	c-1.106,5.272-2.268,10.715-1.701,16.044c0.113,1.162,0.085,2.495,0.057,3.798c0,0.652-0.028,1.276,0,1.871
	c0,1.701,0.085,3.43,0.198,5.159c0.113,1.701,0.283,3.402,0.539,5.102l0.028,0.085c0.113,0.765,0.17,1.134-0.368,1.587
	c-0.34,0.312-0.652,0.34-1.247,0.368c-1.814,0.113-1.616-0.51-2.976-1.219c-2.268-1.219-3.543,2.183-5.187,0.482
	c-1.077-1.134-1.729-1.729-3.317-0.794l-0.283,0.142c-2.013,1.304-1.531,0.482-3.26,0.113c-1.332-0.283-2.069,0.907-2.948,1.814
	c-0.709,0.709-1.417,1.191-2.438,0.737c-1.531-0.822-1.899-2.636-4.139-1.956c-1.162,0.34-1.531,0.765-2.778,0.51l-0.17-0.028
	c-0.482-0.085-0.822-0.567-0.794-1.049c0.057-2.183-0.028-2.495-0.368-3.77c-0.085-0.34-0.198-0.765-0.34-1.361v-0.028
	c-0.539-2.296-0.198-3.742,0.113-5.187c0.255-1.105,0.51-2.211,0.283-3.798c-0.17-1.049-0.368-2.126-0.567-3.203
	c-0.227-1.162-0.454-2.239-0.68-3.203c-0.255-1.162-0.113-2.098,0.057-3.005c0.198-1.191,0.397-2.381-0.822-4.28
	c-0.935-1.332-1.332-2.268-1.276-3.317c0.057-1.02,0.567-1.928,1.417-3.288c0.539-0.822,1.106-1.616,1.672-2.381L154.293,423.331z
	 M155.965,424.437c-0.227,0.312-0.482,0.624-0.709,0.935c-0.539,0.765-1.106,1.531-1.587,2.296
	c-0.709,1.077-1.077,1.757-1.106,2.324c-0.028,0.539,0.255,1.134,0.907,2.098l0,0c1.701,2.551,1.417,4.139,1.134,5.726
	c-0.113,0.737-0.255,1.446-0.057,2.239c0.227,1.134,0.482,2.239,0.68,3.26c0.227,1.106,0.425,2.211,0.567,3.288
	c0.312,1.928,0,3.231-0.283,4.535c-0.283,1.219-0.567,2.438-0.142,4.309c0.113,0.482,0.255,0.935,0.34,1.304
	c0.397,1.474,0.454,2.013,0.454,3.515c1.757,0.255,2.523-0.567,4.535,0.51c0.709,0.397,1.672,1.134,2.466,0.794
	c1.191-0.51,1.871-1.757,3.543-1.928c1.304-0.085,2.098,0.454,3.288,0.085c1.843-0.567,2.58-0.822,4.337,0.198
	c1.304,0.765,1.417,0.454,2.778,0.057c2.154-0.68,2.891,0.425,4.904,0.312c-0.227-1.672-0.397-3.345-0.51-5.017
	c-0.142-1.729-0.198-3.487-0.227-5.272c0-0.624,0.028-1.276,0.028-1.956c0.028-1.219,0.057-2.494-0.057-3.543
	c-0.595-5.641,0.595-11.225,1.729-16.639l0.028-0.17c0.085-0.34,0.142-0.652,0.17-0.935c0.057-0.312,0.113-0.624,0.17-0.935
	c0.17-1.276,0.312-2.268,0.51-3.203c0.198-0.964,0.425-1.928,0.737-3.146c0.312-1.247,0.595-2.636,0.85-4.054
	c0.312-1.644,0.567-3.317,0.765-4.847c0.51-3.515,0.907-4.309,2.381-7.313l0.057-0.142c0.737-1.474,1.276-4.167,1.672-6.236
	c-14.598-0.51-26.787,16.753-34.356,27.496v0.055H155.965z M182.384,460.408c0.142-0.113,0.085-0.057-0.028,0.028l0,0
	L182.384,460.408z M182.356,460.437h-0.028C182.327,460.465,182.327,460.465,182.356,460.437L182.356,460.437z"/>
<path fill="#9D9A9A" d="M176.941,439.46c0.34-1.474,0.482-2.75,0.709-4.28c0.227-1.276,0.992-4.11,0.822-5.244
	c0.595,0.907,0.454,3.543,0.312,4.706c-0.255,2.069-0.595,2.778-1.672,4.677l-0.198,0.312L176.941,439.46z"/>
<path fill="#9D9A9A" d="M176.318,439.12c0.17-1.474,0.227-2.75,0.368-4.28c0.085-1.276,0.482-4.11,0.397-5.244
	c0.283,0.907,0.227,3.543,0.142,4.706c-0.113,2.069-0.283,2.778-0.822,4.677l-0.113,0.312L176.318,439.12z"/>
<path fill="#9D9A9A" d="M162.343,447.908c0.142,1.077,0.397,1.956,0.652,3.033c0.198,0.907,0.368,3.033,0.85,3.685
	c-0.794-0.34-1.474-2.069-1.701-2.863c-0.397-1.417-0.312-2.013,0.057-3.685l0.113-0.283L162.343,447.908z"/>
<path fill="#9D9A9A" d="M162.995,447.851c0.312,1.02,0.624,1.843,0.992,2.863c0.283,0.879,0.822,2.835,1.219,3.515
	c-0.539-0.454-1.276-2.154-1.559-2.92c-0.539-1.361-0.595-1.899-0.68-3.317v-0.255L162.995,447.851z"/>
<path fill="#A3C6C4" d="M53.578,469.451c-3.912,2.693-7.597,5.443-11.339,8.334c-10.885,8.561-13.323,7.143-25.143,11.65
	c-7.058,2.693-8.107,5.641-16.101,2.098c2.154-2.013,13.606-10.715,16.157-12.246c9.808-5.839,12.898-9.723,19.616-18.935
	c2.494-3.402,4.876-6.831,7.398-10.205c7.625-10.176,14.258-20.693,23.131-29.962c3.742-4.337,3.26-6.151,4.054-11.565
	c1.361-7.2,0.227-4.337,3.798-10.857c2.098-3.855,1.247-4.819-0.539-1.531c-0.028,0.057,14.882-4.592,17.972-5.386
	c4.195-1.077,8.362-2.041,12.586-2.92c29.083-6.038,63.524-8.816,90.85,4.961c-6.576,10.658-14.513,13.181-21.175,25.313
	c-7.625,13.861-18.368,23.131-29.31,34.214c-2.58,2.608-4.45,4.876-6.576,7.88c-0.822,1.219-2.098,3.203-3.203,4.139
	c-1.389,0.624-6.406,1.559-7.654,1.417c-2.126-0.255-3.855-0.935-6.378-1.191c-3.26-0.34-5.357-1.474-8.306-0.794
	c-3.912,1.191-3.997,0.113-4.337-4.309c-0.34-4.649-0.482-8.362-0.992-13.068c-0.595-5.698,3.657-12.132,1.106-16.781
	c-1.587-2.948-4.28,3.203-6.52,5.301c-3.458,3.288-5.329,4.847-8.617,8.617c-6.803,7.824-25.143,16.157-34.583,21.94
	C57.461,466.843,55.534,468.119,53.578,469.451L53.578,469.451z"/>
<path fill="#FFFFFF" d="M183.319,407.06c-2.92,2.948-5.811,6.265-8.476,11.14c-7.625,13.861-18.368,23.131-29.31,34.214
	c-2.58,2.608-4.45,4.876-6.576,7.88c-0.822,1.219-2.098,3.203-3.203,4.139c-1.389,0.624-6.406,1.559-7.654,1.417
	c-2.126-0.255-3.855-0.935-6.378-1.191c-1.106-0.113-2.041-0.312-2.948-0.51c0.51-1.729,1.247-3.997,1.899-7.115
	c1.956-9.694,7.625-16.526,10.091-23.811c4.337-12.756,4.365-8.532,12.076-16.639c2.324-2.466,6.094-5.783,10.063-6.293
	c7.285-0.879,3.005-0.964,5.811-1.786c2.494-0.765,13.039,1.049,23.669-1.899C182.384,406.607,182.781,406.805,183.319,407.06
	L183.319,407.06z"/>
<path fill="#1F1F1F" d="M53.578,469.451c-3.912,2.693-7.597,5.443-11.339,8.334c-10.885,8.561-13.323,7.143-25.143,11.65
	c-7.058,2.693-8.107,5.641-16.101,2.098c2.154-2.013,13.606-10.715,16.157-12.246c9.808-5.839,12.898-9.723,19.616-18.935
	c2.494-3.402,4.876-6.831,7.398-10.205c7.625-10.176,14.258-20.693,23.131-29.962c3.742-4.337,3.26-6.151,4.054-11.565
	c1.361-7.2,0.227-4.337,3.798-10.857c2.098-3.855,1.247-4.819-0.539-1.531c-0.028,0.057,14.882-4.592,17.972-5.386
	c4.195-1.077,8.362-2.041,12.586-2.92c3.288-0.709,6.633-1.332,10.035-1.899c5.698,5.301,22.706,0.085,22.082,8.277
	c-0.397,5.329-14.712,9.071-21.09,15.676c-14.967,15.42-30.359,34.639-36.624,41.839c-6.803,7.795-10.687,7.937-20.098,13.748
	C57.461,466.815,55.534,468.119,53.578,469.451L53.578,469.451z"/>
<path fill="#4A4A4A" d="M1.789,491.845c-0.255-0.085-0.51-0.198-0.794-0.312c2.154-2.013,13.606-10.715,16.157-12.246
	c9.808-5.839,12.898-9.723,19.616-18.935c2.494-3.402,4.876-6.831,7.398-10.205c7.625-10.176,14.258-20.693,23.131-29.962
	c0.794-0.907,1.389-1.701,1.843-2.438c0.935-0.113,1.729-0.17,2.353-0.198l-0.539-1.105c-3.118,8.476-8.022,22.592-16.639,26.504
	c-0.51,0.227-8.929,8.957-9.439,10.403c-2.523,7.172-12.813,20.948-19.559,24.463C15.565,482.915,9.527,488.811,1.789,491.845
	L1.789,491.845z"/>
<path d="M54.116,470.301c-1.928,1.304-3.798,2.665-5.669,4.054c-1.899,1.389-3.77,2.806-5.584,4.224
	c-7.852,6.151-11.395,7.228-17.036,8.957c-2.268,0.709-4.904,1.502-8.391,2.835c-1.701,0.652-3.033,1.304-4.195,1.871
	c-3.969,1.956-6.18,3.061-12.643,0.198c-0.51-0.227-0.737-0.822-0.51-1.332c0.057-0.142,0.17-0.255,0.255-0.34
	c1.162-1.077,4.62-3.798,8.107-6.435c3.43-2.608,6.888-5.131,8.192-5.896c4.819-2.891,7.994-5.272,10.772-8.05
	c2.778-2.806,5.216-6.066,8.561-10.63c1.02-1.417,1.984-2.75,2.92-4.082c1.474-2.013,2.92-4.054,4.479-6.123
	c2.098-2.806,4.167-5.726,6.236-8.617c5.272-7.37,10.517-14.712,16.951-21.43c2.863-3.317,3.09-5.074,3.487-8.447
	c0.085-0.765,0.17-1.616,0.312-2.58l0.028-0.085c0.283-1.474,0.454-2.523,0.567-3.288c0.198-1.247,0.312-1.899,0.567-2.58
	c0.255-0.765,0.624-1.446,1.417-2.863c0.397-0.709,0.907-1.587,1.332-2.381l0.057-0.113c-0.397-0.113-0.709-0.482-0.709-0.935l0,0
	c0-0.17,0.057-0.34,0.113-0.482c0.68-1.219,1.276-1.956,1.701-2.239c0.539-0.368,1.049-0.368,1.502-0.028
	c0.255,0.227,0.425,0.567,0.454,0.992c0.51-0.227,1.134-0.454,1.871-0.68c4.649-1.417,11.14-3.402,13.096-3.912
	c2.154-0.567,4.252-1.077,6.293-1.531c2.069-0.482,4.167-0.964,6.321-1.417h0.028c14.598-3.033,30.529-5.244,46.261-4.961
	c15.817,0.283,31.408,3.061,45.213,10.006c0.51,0.255,0.709,0.85,0.454,1.361c-0.028,0.028-0.057,0.085-0.085,0.113
	c-3.118,5.046-6.52,8.277-9.95,11.537c-3.827,3.657-7.682,7.342-11.169,13.691c-6.378,11.594-14.854,19.956-23.811,28.8
	c-1.871,1.843-3.77,3.713-5.641,5.613c-1.304,1.304-2.381,2.494-3.43,3.742c-1.02,1.219-1.984,2.523-3.061,4.025l-0.312,0.482
	c-0.85,1.276-1.984,2.948-3.09,3.855c-0.057,0.057-0.142,0.113-0.227,0.142c-0.765,0.34-2.494,0.765-4.167,1.077
	c-2.041,0.368-3.713,0.34-5.783,0.085c-0.765-0.113-1.531-0.283-2.211-0.709c-1.446-1.191-1.474-2.523-3.742-2.381
	c-1.389,0.085-2.438,1.786-4.394,0.595c-0.765-0.482-1.219-0.113-1.984,0.283c-0.17,0.057-0.312,0.142-0.454,0.227
	c-0.992,0.567-1.672,0.964-2.863,0.765c-0.624-0.113-0.992-0.368-1.417-0.822c-0.765-0.935-0.879-2.438-1.049-4.847
	c-0.113-1.502-0.227-3.033-0.312-4.535c-0.17-2.75-0.34-5.414-0.68-8.476c-0.255-2.58,0.369-5.216,0.992-7.795
	c0.765-3.175,1.531-6.293,0.227-8.617c-0.085-0.198-0.17-0.255-0.227-0.227c-0.652,0.368-1.531,1.616-2.438,2.891
	c-0.765,1.077-1.531,2.183-2.296,2.891c-0.68,0.652-1.247,1.162-1.757,1.644c-2.409,2.268-4.139,3.855-6.775,6.888
	c-4.989,5.726-15.846,11.622-25.087,16.668c-3.657,1.984-7.03,3.827-9.723,5.471c-1.134,0.709-2.098,1.332-2.976,1.899
	c-0.879,0.595-1.871,1.247-2.92,1.956v0.028H54.116z M47.256,472.739c1.871-1.361,3.742-2.721,5.726-4.082l0.028-0.028
	c0.907-0.624,1.899-1.276,2.948-1.956c1.106-0.737,2.098-1.389,2.976-1.928l0.028-0.028c2.693-1.644,6.123-3.515,9.808-5.528
	c9.128-4.961,19.786-10.772,24.548-16.214c2.721-3.146,4.45-4.762,6.917-7.03c0.567-0.539,1.191-1.106,1.757-1.644
	c0.624-0.595,1.332-1.616,2.041-2.608c1.02-1.446,2.041-2.891,3.09-3.487c1.134-0.595,2.154-0.454,2.948,1.02
	c1.672,3.005,0.822,6.491-0.028,10.063c-0.595,2.409-1.191,4.847-0.964,7.115c0.34,3.118,0.51,5.783,0.68,8.561
	c0.085,1.417,0.198,2.863,0.312,4.507c0.142,2.041,0.255,3.288,0.595,3.713c0.992,0.482,1.984-0.454,2.778-0.992
	c0.879-0.624,2.211-1.332,2.92-0.085c0.482,0.85,0.567,1.106,1.729,0.907c1.332-0.255,1.559-1.191,3.572-0.822
	c0.085,0,0.17,0.028,0.255,0.057c1.389,0.425,1.871,1.417,2.693,1.616c0.992,0.17,1.559-0.624,2.154-1.304
	c1.077-1.332,2.211-2.636,3.288-0.397c1.105,2.268,1.077,2.494,3.742,1.843c0.482-0.142,0.964-0.255,1.417-0.425
	c0.85-0.765,1.843-2.239,2.58-3.345l0.34-0.51c1.077-1.531,2.098-2.863,3.175-4.167c1.077-1.304,2.211-2.523,3.515-3.855
	c1.899-1.928,3.798-3.798,5.669-5.641c8.872-8.731,17.235-17.008,23.471-28.346c3.628-6.605,7.625-10.403,11.565-14.173
	c3.118-2.976,6.208-5.924,9.071-10.261c-13.294-6.463-28.233-9.043-43.37-9.326c-15.562-0.255-31.351,1.928-45.836,4.932h-0.028
	c-2.098,0.454-4.167,0.907-6.265,1.389h-0.028c-2.126,0.51-4.224,1.02-6.236,1.531c-1.899,0.482-8.362,2.466-12.983,3.883
	c-1.134,0.34-2.154,0.652-3.033,0.907c-0.198,0.482-0.454,1.02-0.794,1.644c-0.652,1.191-1.02,1.843-1.332,2.409
	c-0.737,1.332-1.106,1.956-1.304,2.523c-0.198,0.539-0.283,1.106-0.454,2.239c-0.142,0.822-0.312,1.871-0.595,3.345
	c-0.142,0.935-0.227,1.757-0.312,2.523c-0.454,3.77-0.68,5.754-3.969,9.524l-0.057,0.085c-6.321,6.605-11.537,13.861-16.781,21.203
	c-2.041,2.863-4.082,5.726-6.265,8.646c-1.474,1.984-2.948,4.025-4.422,6.094c-1.02,1.389-2.013,2.806-2.948,4.11
	c-3.402,4.62-5.868,7.937-8.759,10.828c-2.92,2.92-6.18,5.386-11.169,8.362c-1.219,0.737-4.62,3.203-8.022,5.783
	c-2.608,1.984-5.187,3.997-6.746,5.301c4.507,1.701,6.35,0.765,9.468-0.765c1.219-0.595,2.608-1.276,4.365-1.956
	c3.458-1.332,6.18-2.154,8.504-2.863c5.443-1.644,8.844-2.693,16.384-8.646h0.028C43.543,475.517,45.386,474.1,47.256,472.739
	L47.256,472.739z"/>
<path fill="#9D9A9A" d="M164.441,422.339c-1.644,1.956-2.835,2.58-4.507,4.167c-2.041,2.069-4.224,6.094-5.499,8.759
	c0.709-3.402,2.466-7.342,5.046-9.694c1.02-0.879,2.211-1.672,3.345-2.381c0.369-0.227,1.474-0.964,1.757-1.077L164.441,422.339z"/>
<path fill="#9D9A9A" d="M158.063,432.714c-0.454,1.191-0.68,1.984-1.502,2.976c1.02-3.77,1.304-7.654,5.754-9.156
	c1.843-0.624,0.964-0.113-0.198,0.794C159.905,429.114,159.083,429.993,158.063,432.714L158.063,432.714z"/>
<path fill="#9D9A9A" d="M134.167,448.106c-0.595,1.701-1.304,2.296-2.041,3.685c-0.907,1.814-1.219,5.329-1.276,7.625
	c-0.624-2.92-0.624-6.321,0.567-8.419c0.482-0.794,1.134-1.474,1.786-2.126c0.227-0.198,0.794-0.879,0.992-0.964L134.167,448.106z"
	/>
<path fill="#9D9A9A" d="M132.778,457.148c0.057,1.02,0.142,1.701-0.142,2.58c-0.482-3.26-1.616-6.576,1.304-7.994
	c1.247-0.567,0.737-0.113,0.142,0.709C132.976,454.002,132.664,454.796,132.778,457.148L132.778,457.148z"/>
<path fill="#9D9A9A" d="M124.557,458.367c0.085,1.02,0.142,1.701-0.142,2.58c-0.482-3.26-1.616-6.576,1.304-7.965
	c1.247-0.595,0.737-0.142,0.142,0.68C124.756,455.221,124.444,456.015,124.557,458.367L124.557,458.367z"/>
<path fill="#9D9A9A" d="M126.485,457.063c0.057,0.709,0.142,1.191-0.142,1.786c-0.482-2.239-1.616-4.507,1.304-5.499
	c1.219-0.397,0.737-0.085,0.142,0.482C126.683,454.909,126.371,455.476,126.485,457.063L126.485,457.063z"/>
<path fill="#9D9A9A" d="M135.301,413.693c-0.028,2.551-0.567,3.798-0.822,6.094c-0.283,2.891,0.567,7.398,1.276,10.233
	c-1.616-3.061-2.75-7.2-2.239-10.687c0.227-1.332,0.652-2.665,1.077-3.94c0.142-0.425,0.51-1.701,0.68-1.984L135.301,413.693z"/>
<path fill="#9D9A9A" d="M136.945,425.769c0.397,1.191,0.709,1.956,0.709,3.26c-1.587-3.572-3.827-6.746-1.361-10.743
	c1.049-1.644,0.709-0.709,0.397,0.737C136.066,421.8,136.009,423.019,136.945,425.769L136.945,425.769z"/>
<path fill="#9D9A9A" d="M169.656,403.404c-1.814,0.964-3.061,1.247-4.904,2.013c-2.268,0.992-4.847,3.061-6.378,4.45
	c1.049-1.814,3.203-3.855,6.038-4.989c1.106-0.425,2.353-0.794,3.572-1.106c0.397-0.113,1.559-0.454,1.871-0.482L169.656,403.404z"
	/>
<path fill="#9D9A9A" d="M162.23,408.676c-0.567,0.624-0.879,1.049-1.786,1.531c1.417-1.984,2.098-4.082,6.661-4.649
	c1.899-0.227,0.992,0-0.255,0.425C164.441,406.805,163.562,407.259,162.23,408.676L162.23,408.676z"/>
<path fill="#9D9A9A" d="M141.112,425.967c0.113,0.822,0.255,1.332,0.057,2.353c-0.652-2.353-1.843-4.195,0.595-8.107
	c0.992-1.644,0.595-0.794,0.17,0.454C141.055,423.076,140.828,424.04,141.112,425.967L141.112,425.967z"/>
<path fill="#9D9A9A" d="M123.395,439.035c0.34-1.474,0.454-2.75,0.709-4.28c0.198-1.276,0.992-4.139,0.822-5.272
	c0.595,0.935,0.454,3.572,0.312,4.734c-0.255,2.069-0.595,2.778-1.672,4.677l-0.198,0.312L123.395,439.035z"/>
<path fill="#1F1F1F" d="M204.749,211.13c-0.51-0.397-0.482-0.992,0.454-2.013c5.726-6.18,15.704-17.802,18.68-24.52
	c4.422-10.006,8.674-19.899,9.836-33.761c3.912-46.346,7.682-49.55-17.178-72.17c-11.679-10.602-13.663-7.54-17.348-9.666
	c-4.337-2.551-10.998-8.561-38.438,0.737c-0.652,0.227-1.956,0.935-2.494,1.616c-0.822,1.021-0.794,1.219-1.956,1.956
	c-2.523,1.559-4.876,3.288-7.172,5.329c-19.162,16.838-25.852,19.134-37.162,41.471c-2.58,5.102-0.595,6.18-1.956,9.439
	c-4.28,10.29-2.835,17.291-1.956,25.767c0.822,7.625,0.113,25.512,3.969,31.946c8.391,6.888,18.51,13.266,28.97,18.624
	c9.156,3.118,17.887,4.507,26.447,7.398C174.249,215.552,195.367,214.503,204.749,211.13L204.749,211.13z"/>
<path fill="#FBFCFC" d="M129.263,154.38c2.381,8.589,5.244,21.43,12.529,25.824c2.353,4.082,4.706,8.334,7.115,12.359
	c1.162,1.984,2.183,2.778,3.26,5.131c0.312,0.765,2.126,4.989,1.729,5.556c0,0-0.964,1.247-1.191,1.474
	c-1.446,1.389-2.92,1.162-4.337,0.935c9.666,4.847,13.72,9.808,22.734,12.501c5.556,1.644,13.606,1.758,20.438,0.737
	c0.283-1.616,0.879-3.345,1.956-5.244c0.454-0.765,0.397-1.786,0.312-3.146c-3.317-0.567,25.398-22.45,21.118-23.074
	c-0.255-0.028-0.567-0.057-0.907-0.057c0.624-0.822,1.332-1.843,2.239-3.09c2.409-3.402,5.102-4.252,5.017-9.298
	c0-1.077,0.907-3.713,2.353-5.698c7.002-9.666,8.334-22.025,8.334-21.94c-0.028,0.595,0.454-0.68,0.794-2.75l-1.304-0.284
	c-0.397,1.276-1.134,2.636-2.381,4.195c-3.77,4.791-2.069,8.249-5.131,13.493c-2.409,3.997-5.669,6.832-9.014,9.978
	c-2.069,1.928-6.009,7.285-8.135,7.965c-3.317,1.105-1.276-4.45-2.494-4.677c-1.106-0.227-3.487,2.409-4.11,3.175
	c-0.935,1.162-1.814,2.353-2.778,3.487c-2.211,2.579-4.252,4.932-7.285,6.491c-3.345,1.729-2.098,3.969-4.45,5.811
	c-1.956,1.304-4.28-2.098-5.272-3.458c-3.005-4.082-10.233-7.483-11.934-12.161c-0.085-0.284-1.984-3.798-5.414-10.97
	c-1.956-4.11-2.211-5.584-3.231-9.865c-1.049-4.479-2.693,3.713-5.102,1.729c-1.276-1.077-2.211-10.29-2.778-12.274
	c-0.652-2.296-1.559-4.734-1.757-7.087l-0.028-0.312c-0.227-3.543,0.822-6.548,2.58-9.609c3.742-6.406,0.17-8.192,3.061-13.578
	c1.786-3.317-0.198-12.643,9.099-20.551c1.361-1.134,0.85-3.997,2.494-4.365c1.644-0.312,3.09-0.142,4.847-0.482
	c1.389-0.283,5.783,0.17,7.058,0.652c1.474,0.595,5.159,2.75,6.406,3.969c2.551,2.551,8.135,0.425,11.452,1.531
	c0.425,0.113,0.709,0.142,1.134,0.142c6.52-0.794,4.167,2.353,11.48,3.827c-1.672-4.649-0.312-9.694,8.844-7.739
	c-3.487-2.013-4.28-2.013-8.731-2.239c-2.126-0.085-3.288-0.907-5.074-1.02c-0.397,0-0.567,0-0.935,0.057
	c-3.543,0.85-6.151,4.507-9.638,0.283l-0.425-0.51c-1.899-2.523-1.701-2.976-4.62-4.564c-3.685-2.041-4.507-3.827-9.241-4.167
	c-1.644-0.142-3.175-0.312-4.819-0.453c-4.677-0.425-8.022,2.183-11.877,4.365c-2.948,1.616-5.839,3.005-8.957,4.309
	c-3.827,1.587-7.455,10.772-8.277,14.995c-1.814,9.213-2.098,4.252-5.953,11.509c-2.069,3.883,0.737,4.961-5.641,14.372
	C129.915,137.23,127.392,146.443,129.263,154.38L129.263,154.38z"/>
<path fill="#E5E5E5" d="M218.101,135.841c-2.041,1.162-2.835,1.446-5.244,0.454c-5.414-2.296-7.767-6.69-7.852-12.189
	c0-1.474,0.17-2.835,0.539-4.252c0.51-1.871,1.616-2.608,2.381-4.394c1.587-3.912,0.539-3.317,4.45-5.669
	c4.025-2.409,4.479-1.474,8.787-0.312c1.956,0.567,3.061,1.446,4.025,3.232c0.652,1.191,0.794,3.487,1.191,4.932
	c0.794,2.75,0.935,2.891,0.425,5.783c-0.057,0.425-0.142,0.822-0.255,1.247c-0.822,3.713-0.113,3.572-2.835,6.718
	C221.304,134.169,221.36,133.999,218.101,135.841L218.101,135.841z"/>
<path d="M217.732,134.282c-0.879,0.51-1.474,0.822-2.041,0.879c-0.567,0.085-1.219-0.085-2.239-0.51l0,0
	c-2.409-1.02-4.167-2.466-5.301-4.252c-1.191-1.871-1.757-4.11-1.786-6.605c0-0.652,0.028-1.276,0.085-1.843l0,0
	c0.085-0.567,0.198-1.162,0.368-1.786l0,0c0.17-0.68,0.539-1.219,0.935-1.757c0.454-0.652,0.907-1.332,1.332-2.324v-0.028
	c0.368-0.907,0.624-1.559,0.794-2.098c0.397-1.105,0.397-1.134,2.891-2.636c2.835-1.701,3.628-1.446,5.896-0.737
	c0.595,0.17,1.247,0.397,2.013,0.595c0.85,0.255,1.502,0.539,2.041,0.964c0.51,0.397,0.907,0.935,1.332,1.701
	c0.255,0.51,0.454,1.531,0.624,2.523c0.113,0.709,0.255,1.417,0.425,2.069l0.17,0.624c0.539,1.814,0.595,2.069,0.227,4.252
	c-0.028,0.198-0.057,0.368-0.113,0.567l-0.113,0.567c-0.227,0.964-0.34,1.644-0.425,2.211c-0.227,1.247-0.283,1.616-1.928,3.543
	c-2.013,2.296-2.154,2.381-4.365,3.628L217.732,134.282z M215.521,138.591c0.964-0.113,1.786-0.539,2.948-1.219l0.794-0.425
	c2.721-1.502,2.891-1.616,5.272-4.394c2.466-2.835,2.551-3.458,2.948-5.698c0.085-0.51,0.17-1.134,0.368-1.956
	c0.057-0.227,0.113-0.454,0.142-0.68c0.057-0.255,0.085-0.482,0.142-0.709c0.539-3.118,0.425-3.515-0.283-6.066l-0.198-0.624
	c-0.113-0.425-0.227-1.049-0.34-1.701c-0.227-1.247-0.454-2.551-0.964-3.515l0,0c-0.567-1.077-1.191-1.843-1.956-2.466
	c-0.765-0.595-1.644-1.021-2.75-1.332l0,0c-0.765-0.227-1.417-0.397-1.956-0.595c-2.92-0.907-3.94-1.219-7.71,1.021l-0.028,0.028
	c-3.6,2.183-3.628,2.239-4.507,4.762c-0.17,0.454-0.369,1.049-0.709,1.843c-0.227,0.567-0.567,1.049-0.879,1.531
	c-0.624,0.879-1.191,1.729-1.587,3.146l-0.028,0.028c-0.198,0.794-0.34,1.587-0.454,2.409c-0.085,0.794-0.142,1.616-0.113,2.409
	c0.028,3.175,0.737,6.038,2.268,8.419c1.417,2.183,3.487,3.94,6.293,5.131h0.028C213.622,138.506,214.586,138.704,215.521,138.591
	L215.521,138.591z"/>
<path d="M224.053,128.897c-2.183,3.713-5.839,6.038-9.581,6.236c-0.85-0.227-1.644-0.482-2.381-0.595
	c-3.118-0.51-4.025-5.556-2.438-8.929c1.587-3.373,4.847-8.022,9.978-5.726c5.159,2.324,3.798,8.249,3.798,8.249
	S223.741,128.415,224.053,128.897L224.053,128.897z"/>
<path fill="#E5E5E5" d="M172.86,135.189c-2.239,1.247-3.118,1.559-5.754,0.482c-5.981-2.466-8.589-7.172-8.674-13.011
	c-0.028-1.587,0.142-3.033,0.539-4.507c0.539-2.013,1.757-2.778,2.58-4.677c1.729-4.167,0.595-3.543,4.847-6.038
	c4.394-2.551,4.904-1.559,9.638-0.283c2.154,0.595,3.373,1.531,4.45,3.458c0.709,1.247,0.879,3.685,1.332,5.244
	c0.879,2.948,1.049,3.09,0.51,6.151c-0.085,0.454-0.17,0.879-0.255,1.332c-0.907,3.969-0.142,3.798-3.09,7.143
	C176.375,133.46,176.403,133.262,172.86,135.189L172.86,135.189z"/>
<path d="M172.434,133.545c-0.964,0.539-1.616,0.879-2.211,0.935c-0.624,0.085-1.361-0.085-2.494-0.539
	c-2.636-1.105-4.564-2.665-5.839-4.564c-1.332-1.984-1.956-4.365-2.013-7.03c0-0.709,0.028-1.361,0.113-1.984l0,0
	c0.057-0.624,0.198-1.247,0.368-1.899l0,0c0.198-0.709,0.595-1.276,1.02-1.871c0.482-0.709,0.992-1.417,1.446-2.466V114.1
	c0.397-0.964,0.652-1.672,0.85-2.211c0.425-1.219,0.454-1.247,3.175-2.835c3.09-1.814,3.969-1.531,6.463-0.765
	c0.652,0.198,1.389,0.425,2.239,0.652l0,0c0.907,0.255,1.616,0.567,2.211,1.021c0.567,0.454,1.02,1.02,1.474,1.814
	c0.312,0.539,0.51,1.644,0.709,2.721c0.142,0.765,0.283,1.502,0.51,2.211l0.17,0.624c0.595,1.956,0.68,2.239,0.283,4.535
	c-0.057,0.227-0.085,0.425-0.113,0.624l-0.142,0.624c-0.227,0.992-0.34,1.757-0.454,2.353c-0.227,1.332-0.283,1.701-2.098,3.742
	c-2.183,2.466-2.353,2.551-4.762,3.855L172.434,133.545z M170.053,138.109c1.049-0.113,1.956-0.567,3.232-1.276l0.85-0.454
	c2.948-1.587,3.146-1.701,5.754-4.649c2.665-3.033,2.778-3.685,3.175-6.038c0.085-0.567,0.198-1.219,0.397-2.098l0.17-0.737
	c0.057-0.255,0.085-0.482,0.142-0.737c0.567-3.317,0.454-3.742-0.369-6.463l-0.198-0.652c-0.142-0.454-0.255-1.134-0.397-1.814
	c-0.227-1.361-0.51-2.721-1.077-3.742c-0.624-1.134-1.304-1.984-2.154-2.636c-0.822-0.652-1.786-1.077-3.005-1.446h-0.028
	c-0.85-0.227-1.531-0.425-2.126-0.624c-3.231-0.992-4.337-1.332-8.476,1.049v0.028c-3.94,2.324-3.969,2.353-4.932,5.046
	c-0.17,0.482-0.397,1.134-0.737,1.956c-0.283,0.624-0.624,1.134-0.992,1.616c-0.652,0.935-1.276,1.843-1.701,3.373v0.028
	c-0.227,0.822-0.397,1.672-0.482,2.523c-0.113,0.879-0.17,1.729-0.142,2.608c0.057,3.373,0.85,6.406,2.551,8.957
	c1.559,2.324,3.827,4.195,6.945,5.471v0.028C167.956,138.024,169.004,138.223,170.053,138.109L170.053,138.109z"/>
<path d="M180.57,127.791c-2.381,4.082-6.378,6.633-10.517,6.831c-0.907-0.227-1.786-0.482-2.608-0.624
	c-3.43-0.567-4.422-6.094-2.665-9.808c1.729-3.713,5.301-8.816,10.942-6.293c5.641,2.551,4.195,9.071,4.195,9.071
	S180.258,127.281,180.57,127.791L180.57,127.791z"/>
<path fill="#426FA7" d="M190.831,216.26c0,0-2.466-9.808-16.044-13.521c-13.55-3.713-37.247-6.52-52.356-14.23
	c-15.109-7.71-26.079-15.109-26.589-21.487c-0.539-6.378,12.217-11.707,12.217-11.707s-19.332,3.855-21.912,11.282
	c-2.58,7.455-4.025,19.049-2.693,24.69c0.737,2.665,2.154,5.102,4.394,6.746c0.737,0.539,0.709,0-0.142,1.758
	c-3.175,6.548-4.592,11.254,2.154,15.505c0.397,0.255,2.551,1.644,2.863,1.474c8.901-4.791,23.839-6.605,33.732-6.746
	c3.458-0.028,6.832,0.085,10.233,0.312c29.055,1.984,54.17,17.546,54.17,17.546L190.831,216.26z"/>
<path fill="#2B5383" d="M96.267,164.556c1.587-3.77,7.03-6.917,9.95-8.362l-0.028-0.425c-4.932,1.162-17.943,4.847-20.041,10.828
	c-2.58,7.455-4.025,19.049-2.693,24.69c0.737,2.636,2.126,5.046,4.309,6.69c1.928-0.624,4.337-1.134,7.852-1.531
	c4.025-0.255,13.55,1.049,17.291,2.381c5.896,2.154,6.18,2.976,12.983,3.345c1.474,0.085,2.381,0.227,3.798,0.624
	c-2.835,0.057-5.981,1.106-8.787,1.928c-2.183,0.624-2.551,1.332-4.989,1.361c4.252,0.765,9.751-0.907,13.975-0.34
	c0.567,0.085-2.126,2.976-1.559,3.061c7.257,1.247,15.676,1.672,22.762,3.572c9.468,2.58,17.235,4.054,26.589,6.945
	c1.276,0.425,8.816,4.62,9.468,4.847c0.624,0.198-3.487-4.507-5.868-6.463c-2.636-1.956-22.479-8.22-27.808-10.148
	c-10.12-3.628-19.757-7.88-30.189-10.885c-3.883-1.105-7.654-2.778-11.565-4.025c-1.276-0.425-2.58-0.85-3.883-1.276
	c-13.663-4.479-10.885-8.164-13.068-13.748c-2.211-5.584,0.765-12.869,0.765-12.869L96.267,164.556z"/>
<path fill="#2B5383" d="M148.34,209.457c0,0-7.937-1.304-20.013-0.652c-12.104,0.652-20.466,2.381-26.731,4.564
	c-6.265,2.154-7.795,2.693-9.014,2.948s-8.022-5.528-7.455-8.646c0.567-3.146,3.231-9.156,3.231-9.156s3.203-1.984,5.046-2.154
	c1.843-0.198,4.224,2.353,4.224,2.353s-3.713,2.665-0.709,5.187c3.005,2.494,20.58,2.098,27.95,1.162
	C132.239,204.156,144.995,206.027,148.34,209.457L148.34,209.457z"/>
<path d="M175.127,201.775c-4.252-1.162-9.439-2.239-15.024-3.373c-12.472-2.579-25.88-5.216-37.162-10.8
	c-5.272-2.58-7.398-1.757-12.841-5.924c-2.58-2.013-4.535-3.373-7.342-5.074c-3.061-1.928-4.649-3.94-5.839-7.398
	c-1.446-4.649,1.786-7.285,5.641-9.808c1.871-1.247,3.798-2.268,5.839-3.146c0.539-0.227,0.794-0.822,0.624-1.332
	c-0.17-0.425-0.624-0.652-1.077-0.567c-6.321,1.276-17.943,4.734-21.855,10.261c-3.345,5.329-2.863,11.14-3.742,17.008
	c-0.652,4.082-1.474,7.795,0.283,11.565c1.219,2.409,2.75,3.657,4.904,5.216c-1.814,6.888-5.074,11.82,1.446,17.206
	c0.595,0.482,1.134,0.879,1.757,1.304c2.58,1.701,2.438,0.397,5.301-1.049c4.706-2.154,11.112-2.75,16.157-3.742
	c8.561-1.701,10.743-1.843,19.276-1.106c1.417,0.142,2.835,0.227,4.252,0.312c5.187,0.227,11.254,1.219,16.072,2.806
	c1.304,0.425,2.523,0.879,3.855,1.276c4.195,1.162,6.69,1.389,10.913,2.013c3.515,0.595,14.06,3.657,16.98,5.357
	c1.928,1.134,5.924,4.762,7.143,5.244c1.616,0.595,1.276-2.324,1.304-3.43c0.113-3.118,0.822-7.342-0.425-10.091
	C188.62,207.955,181.902,203.788,175.127,201.775L175.127,201.775z M174.475,203.703c6.633,2.013,11.735,5.131,14.995,11.367
	c1.247,2.381,0.425,6.746,0.397,9.524c-0.028,1.162-0.709,0.085-1.672-0.624c-5.244-3.997-9.581-4.706-15.647-6.831
	c-4.054-1.417-5.329-1.361-9.553-2.013c-0.425-0.057-0.822-0.113-1.219-0.198c-4.989-0.85-6.945-1.899-11.452-3.458
	c-6.123-1.984-15.25-2.069-21.997-2.665c-8.277-0.652-15.931,1.474-24.151,2.721c-4.422,0.68-6.945,1.106-10.942,3.487
	c-1.474,0.879-1.701,0.397-2.92-0.737c-8.929-8.731,1.871-15.08-1.644-17.461c-5.669-3.827-5.953-6.378-4.961-13.351
	c0.51-3.685,0.879-7.257,1.361-10.913c1.276-9.468,5.528-10.658,13.635-13.578c3.77-1.361,1.899-0.737-0.227,1.219
	c-5.329,5.046-5.216,8.362-1.049,13.663c2.806,3.43,6.038,4.989,9.496,7.625c5.499,4.195,5.357,3.997,12.047,6.576
	c2.778,1.077,5.471,2.608,8.362,3.77c10.035,3.997,21.572,6.321,32.258,8.532C165.178,201.492,170.337,202.569,174.475,203.703
	L174.475,203.703z"/>
<path d="M118.038,200.953c1.474,0.255,7.824,0.992,8.759,0.652c1.02-0.794-6.208-2.268-6.86-2.353
	c-4.762-0.765-8.929-2.069-13.805-2.75c-5.754-0.822-12.302-2.239-17.972,0.425c-1.049,0.51-0.794,2.268,0.425,1.758
	c5.868-2.466,9.156-1.758,15.109-0.822c3.685,0.595,6.009,1.049,9.609,2.013C114.891,200.301,116.393,200.641,118.038,200.953
	L118.038,200.953z"/>
<path fill="#426FA7" d="M190.831,216.26c-0.68-2.92,6.775-8.901,9.043-10.29c6.151-3.628,9.156-3.288,14.769-9.241
	c2.013-2.098,3.458-3.827,5.613-5.896c0.794-0.737,1.587-1.474,2.409-2.211c3.742,8.079,7.342,15.987-0.113,23.981
	c-1.247,1.276-0.794,7.398-0.794,7.398s0.907,3.628-10.29,0.227c-11.225-3.402-20.608,7.654-20.608,7.654L190.831,216.26z"/>
<path fill="#2B5383" d="M190.945,214.956c1.106-3.118,6.973-7.795,8.929-8.986c6.151-3.628,9.156-3.288,14.769-9.241
	c2.013-2.098,3.458-3.827,5.613-5.896c0.794-0.737,1.587-1.474,2.409-2.211c3.713,8.079,7.342,15.959-0.113,23.981
	c-1.417,0.085-2.239-0.34-1.701-1.417c1.247-2.409,2.409-8.617-2.098-7.824c-3.883,0.68-5.556,1.956-6.775,2.183
	c-3.543,0.624-12.416,5.244-16.413,6.633c-3.09,1.077-4.025,4.507-4.734,4.082l0.227,0.028
	C191.03,215.977,190.973,215.523,190.945,214.956L190.945,214.956z"/>
<path d="M222.352,190.21c3.345,5.329,5.357,9.439,2.948,16.072c-1.106,2.551-1.928,3.543-3.458,5.698
	c-0.964,1.361-0.964,2.296-1.106,3.855c-0.085,1.417-0.085,2.92,0.028,4.28c0,0.085,0,0.142,0.028,0.198
	c0,0.142,0,1.672-8.986-1.049c-6.321-1.531-15.222-0.68-19.984,4.791c-0.822,0.935-0.482-0.369-0.482-1.446
	c0-1.956-0.368-6.406,0.454-8.022c3.43-5.613,9.78-7.767,15.08-11.055c5.272-3.317,8.674-6.491,12.983-10.857
	C220.68,191.854,221.53,191.032,222.352,190.21L222.352,190.21z M189.612,216.6c-0.057,1.417-0.312,10.8,0.425,11.395
	c0.794,0.624,2.551-2.353,3.061-2.92c3.997-4.649,9.638-4.819,15.052-4.45c1.077,0.085,1.956,0.283,2.976,0.567
	c11.792,3.572,11.735-0.595,11.622-1.361c-0.595-9.128,1.446-5.811,3.997-12.813c2.268-6.973,1.049-11.594-2.239-17.546
	c-1.871-3.203-2.891-1.106-5.046,1.219c-5.414,5.896-9.128,9.609-16.384,13.323c-4.989,2.551-8.702,3.628-12.019,8.702
	c-0.425,0.652-0.652,1.106-0.964,1.814C189.754,215.325,189.697,215.778,189.612,216.6L189.612,216.6z"/>
<path d="M217.647,212.207c-5.357,0.17-8.589,1.247-13.748,2.523c-5.187,1.276,1.757,0.737,2.835,0.595
	c4.422-0.652,6.52-1.304,11.225-1.276c1.191,0,5.159,0.142,5.528-1.446c0.454-1.758-4.224-0.454-5.159-0.425L217.647,212.207z"/>
<path fill="#A32A00" d="M201.263,142.843c2.665,1.502,4.252,2.75,5.726,4.706c1.531,2.041,3.912,6.945,2.75,8.702
	c-1.162,1.786-0.539,2.863-4.819,3.26c-4.535,0.397-5.528-0.624-10.261-2.154c-0.85-0.283-6.661-3.061-8.22-3.742
	c-3.402-1.502-11.282-4.649-8.702-7.285c2.494-2.466-0.255-3.203,6.945-3.317c4.677-0.057,6.803-1.531,10.261-1.021
	c1.928,0.283,2.466,0.567,4.649,0.68C199.732,142.673,201.263,142.843,201.263,142.843L201.263,142.843z"/>
<path fill="#C75036" d="M191.965,156.166c-2.041-0.935-4.564-2.154-5.528-2.551c-3.402-1.502-11.282-4.649-8.702-7.285
	c1.587-1.559,1.049-2.438,2.324-2.891c2.75,0.057,6.803,0.879,7.937,1.616c1.843,1.219,4.507,1.814,6.605,2.523
	c1.928,0.68,6.123,4.904,6.123,6.888c0,0.057-0.085,0.113-0.17,0.113c-1.134,0.17-0.198,0.057-0.68,0.283
	c-2.268,0.992-0.624,0.822-1.729,1.474C194.686,158.348,193.694,156.591,191.965,156.166L191.965,156.166z"/>
<path d="M201.66,142.191c1.332,0.765,2.438,1.474,3.373,2.268c0.964,0.765,1.786,1.616,2.551,2.636
	c0.907,1.219,2.126,3.43,2.75,5.443c0.51,1.616,0.652,3.146,0.028,4.139c-0.227,0.34-0.368,0.652-0.539,0.964
	c-0.652,1.389-1.077,2.268-4.819,2.608c-3.628,0.34-5.102-0.198-7.767-1.191c-0.794-0.283-1.701-0.624-2.806-0.992
	c-0.539-0.17-2.891-1.276-5.017-2.268c-1.361-0.652-2.636-1.219-3.288-1.502l-0.624-0.283c-2.381-1.021-6.151-2.636-7.937-4.422
	c-1.219-1.219-1.616-2.523-0.34-3.77c0.652-0.652,0.879-1.191,1.077-1.587c0.652-1.389,0.879-1.871,6.378-1.956
	c2.069-0.028,3.657-0.368,5.074-0.652c1.757-0.368,3.317-0.68,5.301-0.368c0.68,0.085,1.219,0.198,1.701,0.283
	c0.822,0.17,1.531,0.312,2.863,0.369c0.085,0.028,0.454,0.057,0.85,0.085l0,0C200.951,142.049,201.518,142.134,201.66,142.191
	L201.66,142.191z M204.097,145.593c-0.879-0.709-1.899-1.361-3.203-2.098v-0.028c-0.085-0.028-0.227,0.057-0.595,0.028l-0.737-0.085
	c-1.446-0.057-2.211-0.227-3.09-0.397c-0.454-0.085-0.935-0.17-1.616-0.284c-1.757-0.255-3.175,0.028-4.819,0.369
	c-1.474,0.312-3.118,0.624-5.329,0.68c-4.564,0.057-4.706,0.34-5.046,1.077c-0.255,0.51-0.539,1.162-1.389,2.013
	c-0.482,0.482-0.255,1.077,0.369,1.672c1.559,1.559,5.159,3.118,7.455,4.11l0.624,0.255c0.624,0.283,1.928,0.879,3.317,1.531
	c2.069,0.964,4.365,2.041,4.847,2.211c1.162,0.368,2.069,0.709,2.891,0.992c2.438,0.935,3.798,1.417,7.087,1.134
	c2.891-0.284,3.175-0.85,3.628-1.786c0.142-0.34,0.34-0.709,0.624-1.134c0.34-0.539,0.198-1.644-0.198-2.863
	c-0.595-1.843-1.701-3.883-2.551-5.017C205.685,147.067,204.948,146.301,204.097,145.593L204.097,145.593z"/>
<path fill="#DC8F2E" d="M211.326,166.597c-2.268,0.34-5.187-1.332-7.824-1.758c-3.713-0.595-6.35-1.389-10.346-2.92
	c-2.636-1.02-5.528-4.337-8.617-6.321c-5.357-3.458-7.002-4.535-11.424-12.161c1.587,1.276,10.261,6.945,20.268,9.383
	c9.411,2.268,14.967,4.649,20.268,7.143c6.69,3.175,17.065,7.087,14.712,8.929C226.208,170.651,213.99,166.172,211.326,166.597
	L211.326,166.597z"/>
<path d="M211.439,167.334c-1.559,0.255-3.26-0.312-5.017-0.907c-1.02-0.34-2.069-0.68-3.033-0.85
	c-1.899-0.283-3.515-0.652-5.159-1.134c-1.644-0.454-3.317-1.049-5.329-1.842c-1.644-0.624-3.317-2.041-5.074-3.515
	c-1.191-1.02-2.438-2.069-3.685-2.863c-2.721-1.758-4.507-2.891-6.208-4.62c-1.672-1.701-3.232-3.912-5.471-7.795l1.106-0.964
	c0.964,0.794,4.649,3.232,9.666,5.556c3.061,1.417,6.605,2.778,10.318,3.685c4.762,1.162,8.504,2.324,11.764,3.543
	c3.26,1.191,5.981,2.409,8.646,3.685c1.332,0.624,2.806,1.276,4.28,1.928c4.62,2.069,9.411,4.195,10.743,5.868
	c0.709,0.879,0.737,1.701-0.142,2.381c-1.587,1.247-6.576,0.057-11.027-0.992C214.982,167.816,212.375,167.193,211.439,167.334
	L211.439,167.334z M206.904,165.01c1.559,0.51,3.09,1.049,4.309,0.85c1.219-0.198,3.969,0.454,6.945,1.162
	c4.11,0.992,8.731,2.098,9.751,1.304c0.057-0.057,0-0.142-0.085-0.283c-1.134-1.389-5.726-3.458-10.205-5.443
	c-1.502-0.652-2.976-1.332-4.309-1.956c-2.608-1.219-5.301-2.438-8.504-3.628c-3.203-1.191-6.945-2.353-11.594-3.487
	c-3.827-0.907-7.483-2.324-10.602-3.77c-2.863-1.332-5.329-2.693-7.115-3.798c1.304,2.069,2.381,3.458,3.515,4.592
	c1.587,1.616,3.288,2.721,5.953,4.422c1.332,0.85,2.608,1.928,3.827,2.976c1.644,1.389,3.231,2.721,4.649,3.26
	c1.956,0.765,3.6,1.332,5.187,1.814c1.616,0.454,3.175,0.794,5.017,1.077C204.721,164.273,205.827,164.641,206.904,165.01
	L206.904,165.01z"/>
<path fill="#DC8F2E" d="M232.217,143.665c-2.835-0.028-4.649-0.879-7.002-1.077c-4.054-0.397-11.452,0.567-15.931,0.85
	c-2.324,0.142-4.082,0.028-6.18-0.17c-8.022-1.049-8.22-1.531-16.214,0.425c-4.224,1.02-15.307,2.835-13.72-0.68
	c2.098-4.592,3.628-2.183,6.038-3.6c2.948-1.729,2.551-0.935,5.641-2.778c10.148-6.406,8.872-8.249,15.676-9.78
	c5.953-1.332,15.109,1.162,28.176,4.507c5.528,1.417,12.614,0.68,19.049,3.6c4.932,2.268,3.997,3.09,11.339,4.762
	c1.134,0.255,8.135,6.038,0.113,6.463c-2.381,0.142-5.868-0.142-8.391-0.142c-5.074-0.057-6.293-0.255-10.743-0.964
	c-2.58-0.397-2.976-1.134-5.811-1.162C233.804,143.92,232.642,143.665,232.217,143.665L232.217,143.665z"/>
<path fill="#FFBD64" d="M186.891,143.693c-0.624,0.142-1.417,0.312-2.268,0.482c-0.992-2.466,3.288-3.855,4.904-4.592
	c5.414-2.098,9.071-1.758,14.202-3.288c7.342-2.211,14.031,0.085,21.345,0.765c2.608,0.255,4.932,0.51,7.54,0.964
	c6.86,1.672,13.691,2.324,20.608,3.458c3.203,0.51,6.661,1.446,8.702,4.167c-2.721,1.162-16.526,0.454-19.729-0.057
	c-3.203-0.539-4.989-1.361-8.164-1.672c-7.512-0.822-8.419-1.758-16.724-1.417c-6.038,0.255-10.885,0.567-17.008,0.028
	C194.034,141.879,192.957,142.248,186.891,143.693L186.891,143.693z M262.293,145.451c-0.113,0.085-0.227,0.142-0.368,0.198
	C261.584,144.997,261.867,145.111,262.293,145.451L262.293,145.451z"/>
<path d="M232.189,142.928c-1.559,0-2.835-0.283-4.054-0.567c-0.935-0.198-1.843-0.397-2.891-0.51
	c-2.976-0.283-7.654,0.142-11.735,0.51c-1.559,0.142-3.033,0.255-4.309,0.34c-1.162,0.085-2.154,0.085-3.118,0.057
	c-0.935-0.028-1.899-0.113-2.948-0.227c-0.935-0.113-1.843-0.255-2.693-0.369c-5.613-0.765-6.661-0.907-13.776,0.822
	c-2.324,0.567-6.746,1.361-9.921,1.361c-0.992,0-1.814-0.057-2.409-0.255c-0.34-0.113-0.539-0.227-0.567-0.369
	c0-0.113,0.028-0.227,0.113-0.369c1.162-2.608,2.069-2.636,3.118-2.665c0.765-0.028,1.616-0.057,2.636-0.652
	c1.361-0.822,1.984-1.049,2.58-1.276c0.709-0.255,1.417-0.539,3.061-1.531l0,0c4.252-2.665,6.52-4.564,8.192-5.953
	c2.296-1.899,3.458-2.863,7.257-3.713c5.528-1.219,14.117,0.964,26.249,4.082l1.587,0.397c2.154,0.567,4.535,0.794,7.002,1.049
	c3.883,0.368,8.022,0.765,11.877,2.523c1.672,0.765,2.636,1.332,3.487,1.843c1.757,1.077,3.061,1.842,8.05,2.976
	c0.397,0.085,1.814,1.162,2.693,2.381c0.283,0.397,0.482,0.794,0.567,1.162c0.028,0.255,0,0.51-0.198,0.709
	c-0.397,0.397-1.276,0.709-2.92,0.794c-1.474,0.085-3.373,0-5.187-0.085c-1.134-0.028-2.211-0.085-3.146-0.085
	c-2.523-0.028-4.082-0.085-5.556-0.227c-1.446-0.113-2.863-0.34-5.074-0.709c-1.02-0.142-1.672-0.369-2.268-0.567
	c-0.992-0.312-1.871-0.595-3.685-0.595c-0.142-0.028-0.51-0.085-0.879-0.142C232.897,143.013,232.472,142.928,232.189,142.928
	L232.189,142.928z M227.852,143.778c1.304,0.283,2.665,0.595,4.394,0.595c0.142,0,0.51,0.085,0.907,0.142s0.822,0.142,1.134,0.142
	c1.559,0,2.324,0.255,3.203,0.539c0.652,0.198,1.389,0.454,2.494,0.624c2.211,0.34,3.628,0.567,5.187,0.709
	c1.502,0.142,3.09,0.198,5.669,0.227c0.935,0,2.013,0.057,3.09,0.085c1.871,0.085,3.827,0.17,5.329,0.085
	c2.098-0.113,3.288-0.595,3.912-1.247c0.539-0.539,0.652-1.191,0.539-1.871c-0.113-0.595-0.397-1.219-0.822-1.786
	c-1.077-1.474-3.033-2.863-3.657-3.005c-4.734-1.077-5.924-1.786-7.568-2.778c-0.879-0.539-1.928-1.162-3.628-1.928
	c-4.082-1.871-8.391-2.296-12.416-2.665c-2.409-0.255-4.706-0.454-6.746-0.992l-1.587-0.397c-12.331-3.175-21.09-5.414-26.957-4.11
	c-4.167,0.935-5.443,1.984-7.88,4.025c-1.672,1.361-3.883,3.231-8.022,5.839c-1.559,0.935-2.183,1.162-2.806,1.389
	c-0.68,0.255-1.332,0.51-2.835,1.389c-0.68,0.397-1.332,0.425-1.928,0.453c-1.531,0.057-2.835,0.085-4.394,3.458
	c-0.142,0.368-0.227,0.709-0.198,1.02c0.057,0.85,0.652,1.417,1.672,1.729c0.737,0.255,1.757,0.369,2.891,0.34
	c3.317,0,7.88-0.822,10.29-1.389c6.831-1.672,7.852-1.531,13.209-0.794c0.765,0.113,1.616,0.227,2.721,0.369l0,0
	c1.049,0.113,2.041,0.198,3.061,0.227c1.02,0.028,2.069,0.028,3.26-0.057c1.247-0.085,2.75-0.198,4.365-0.34
	c3.997-0.369,8.617-0.765,11.452-0.51C226.123,143.382,226.973,143.58,227.852,143.778L227.852,143.778z"/>
<path d="M236.724,325.139v0.028V325.139z"/>
<path fill="#FFA835" d="M182.923,461.23c4.507,1.757,3.628,0.113,8.079,2.976c4.592,2.891,14.457,7.568,20.211,7.342
	c3.317-0.113,16.781,10.12-3.742,10.12c-3.6,0-7.03,0.652-9.524,3.997c-0.539,0.709-11.339,3.175-17.631-1.304
	c-3.317-2.381-28.346-6.661-31.124-11.735c-0.709-1.304,1.871-2.948,3.118-5.159c1.644-2.891,2.409-6.265,4.11-5.811
	c8.787,2.353,11.934-3.005,17.66-0.652C175.127,461.429,182.469,461.032,182.923,461.23L182.923,461.23z"/>
<path fill="#DC8F2E" d="M208.434,481.668c-0.312,0-0.624,0-0.964,0c-3.6,0-7.03,0.652-9.524,3.997
	c-0.539,0.709-11.339,3.175-17.631-1.304c-3.317-2.381-28.346-6.661-31.124-11.735c-0.709-1.304,1.871-2.948,3.118-5.159
	c0.822-1.474,1.446-3.203,2.268-4.564c0.425-0.737,0.907-1.389,1.843-1.247c1.899,0.312,2.211-1.162,5.131-0.085
	c1.672,0.652,1.786,0.567,3.487,0.113c2.013-0.51,3.912-1.276,6.009-1.304c0.51,0.709,0.765,1.332,0.51,1.786
	c-2.211,3.77-7.427,3.543-6.463,6.378c0.113,0.028,1.814,1.389,2.523,1.616c3.118,0.964,1.956,0.482,4.592,1.02
	c4.649,0.935,12.472,5.131,15.676,8.787c1.474,1.672,6.576,2.069,8.617,1.814c4.054-0.51,6.605-2.041,11.565-0.255L208.434,481.668z
	"/>
<path d="M183.291,460.295c1.757,0.709,2.636,0.822,3.373,0.964c1.219,0.17,2.098,0.312,4.876,2.098
	c2.58,1.616,6.86,3.827,11.083,5.386c3.146,1.134,6.236,1.899,8.561,1.814c1.616-0.057,5.187,1.871,7.058,4.139
	c0.68,0.85,1.191,1.729,1.332,2.636c0.17,1.02-0.085,2.013-0.935,2.891c-1.446,1.417-4.762,2.466-11.169,2.466
	c-1.701,0-3.345,0.142-4.847,0.68c-1.446,0.51-2.778,1.389-3.883,2.891c-0.425,0.539-5.357,2.013-10.517,1.644
	c-2.92-0.227-6.009-0.992-8.476-2.75c-1.077-0.765-5.187-1.871-10.006-3.175c-8.617-2.353-19.474-5.301-21.402-8.872
	c-0.794-1.417,0.255-2.608,1.474-4.025c0.567-0.652,1.219-1.361,1.644-2.098c0.454-0.822,0.85-1.672,1.219-2.466
	c1.077-2.409,1.984-4.365,3.997-3.827c4.337,1.162,7.257,0.312,9.808-0.425c2.636-0.765,4.932-1.446,7.994-0.17
	c0.454,0.17,3.288,0.142,5.528,0.113C181.619,460.182,182.951,460.153,183.291,460.295L183.291,460.295z M186.352,463.215
	c-0.822-0.142-1.843-0.283-3.798-1.049l-2.551,0.028c-2.409,0.028-5.471,0.085-6.293-0.255c-2.409-0.992-4.394-0.425-6.661,0.227
	c-2.835,0.822-6.009,1.757-10.885,0.454c-0.397-0.085-0.964,1.162-1.701,2.721c-0.368,0.85-0.794,1.757-1.276,2.636
	c-0.539,0.907-1.219,1.701-1.871,2.438c-0.737,0.822-1.361,1.531-1.247,1.729c1.531,2.835,11.934,5.669,20.183,7.909
	c5.017,1.361,9.269,2.494,10.658,3.487c2.126,1.531,4.847,2.183,7.455,2.381c4.507,0.34,8.504-0.51,8.759-0.85
	c1.389-1.842,3.061-2.948,4.847-3.6c1.757-0.624,3.6-0.794,5.499-0.794c5.783,0,8.646-0.765,9.751-1.871
	c0.34-0.34,0.454-0.737,0.368-1.162c-0.085-0.51-0.397-1.106-0.879-1.672c-1.531-1.871-4.28-3.458-5.443-3.43
	c-2.608,0.113-5.981-0.709-9.326-1.928c-4.394-1.616-8.816-3.883-11.452-5.584C188.025,463.47,187.316,463.356,186.352,463.215
	L186.352,463.215z"/>
<path d="M195.253,474.638c2.409,0.964,3.061,1.786,4.961,2.806c2.494,1.276,7.739,2.381,11.254,2.948
	c-4.706-0.057-9.921-0.822-12.728-2.438c-1.049-0.652-1.871-1.446-2.636-2.211c-0.227-0.255-1.049-0.992-1.134-1.191
	L195.253,474.638z"/>
<path d="M176.261,471.152c2.409,1.559,4.309,1.757,6.208,3.26c2.494,1.871,6.463,5.046,10.006,6.491
	c-4.706-1.191-8.674-4.054-11.48-6.378c-1.332-1.162-4.139-1.219-5.046-3.515L176.261,471.152z"/>
<path fill="#426FA7" d="M91.562,216.827c0,0-5.698,6.293-15.902,44.476c2.721,5.074-6.491,25.54-4.11,31.691
	c-4.224,1.899,0.198,6.661-0.397,8.135c-5.754,14.372-8.419,57.912-3.487,78.094c0.652,3.033-1.672,10.205,3.6,14.598
	c5.244,4.422,52.866,9.609,89.008,7.398c20.126-1.247,30.699-3.997,39.685-3.997c1.814,0,7.512-10.573,6.945-22.252
	c1.049-7.058,7.88-22.649,11.424-42.548c7.71-43.569,20.296-102.926,1.02-111.061c-11.65-4.961-25.2,0.737-33.052-0.595
	c-7.852-1.304-27.666-12.699-41.357-14.74C131.219,203.986,92.809,208.295,91.562,216.827L91.562,216.827z"/>
<path fill="#2B5383" d="M91.562,216.827c0,0-5.698,6.293-15.902,44.476c2.721,5.074-6.491,25.54-4.11,31.691
	c-4.224,1.899,0.198,6.661-0.397,8.135c-4.904,12.217-7.54,45.439-5.216,67.521l0.028,0.198l0.028,0.198
	c0.028,0.283,0.057,0.539,0.085,0.794v0.198l0.028,0.198c0.028,0.255,0.057,0.51,0.113,0.765l0.028,0.397l0.028,0.198l0.085,0.51
	l0.085,0.652l0.057,0.425c0.028,0.255,0.085,0.51,0.113,0.765l0.057,0.255c0.028,0.312,0.085,0.595,0.142,0.879l0.028,0.198
	c0.057,0.312,0.113,0.595,0.17,0.907l0.028,0.085c0.057,0.34,0.113,0.652,0.17,0.964v0.028l0.028,0.028
	c0.057,0.34,0.113,0.652,0.198,0.964l0,0v0.028c0.085,0.312,0.142,0.624,0.227,0.935l0.028,0.113v0.057l0.028,0.113v0.028v0.113
	l0.028,0.057v0.113v0.028l0,0l0.028,0.142v0.028v0.142v0.028v0.028v0.113v0.028v0.028v0.142l0,0v0.057l0.028,0.113v0.028v0.113
	v0.085v0.057v0.142l0,0l-0.028,0.113v0.085v0.057v0.142l0,0v0.142v0.085v0.198l0,0v0.028v0.142v0.057l-0.028,0.085v0.142v0.028
	v0.142v0.028v0.113v0.142v0.028l-0.028,0.17v0.028v0.113v0.113v0.057v0.17l0,0v0.142v0.113v0.057l-0.028,0.17l0,0v0.17v0.17v0.142
	v0.028v0.17v0.142v0.028v0.142v0.028v0.17v0.057l0.028,0.113v0.028v0.142v0.17v0.113v0.142l0.028,0.028v0.057v0.17v0.142
	l0.028,0.085v0.113v0.028l0.028,0.17v0.028v0.142v0.028l0.028,0.142l0,0l0.028,0.198l0,0v0.057l0.028,0.142v0.113l0.028,0.142
	l0.028,0.057l0,0l0.028,0.198l0,0l0.028,0.142v0.085l0.028,0.113l0,0l0.057,0.17v0.028l0.028,0.113l0.028,0.085l0.028,0.142
	l0.057,0.17c0.482,1.729,1.361,3.373,3.033,4.762c5.244,4.422,52.866,9.609,89.008,7.398c15.307-0.935,30.359-3.827,40.649-5.131
	c0.454-0.624,0.992-1.332,1.531-2.069c-26.192,1.247-100.602,2.891-94.309-7.994c6.009,0.737,16.866,1.956,22.195,2.013
	c7.597,0.113,30.019-1.956,30.019-1.956c-25.285-7.342-41.131-4.819-52.016-14.343c-3.005-2.636-0.482-3.118,3.146-2.778
	c1.616,0.142,30.841-0.198,30.954-0.482c0.057-0.142-27.553-12.359-15.25-22.904c7.739-6.633,58.025-12.359,57.231-14.768
	c-3.317-1.106-71.008-25.087-73.077-28.998c-10.658-19.956-27.269-15.704-15.137-54.567c3.26-10.403,8.05-14.825,19.106-14.825
	c1.276,0,7.143,1.077,7.115,1.021c-2.75-5.783-9.78-8.504-10.035-8.929c-3.033-5.131,28.091,16.242,28.176,16.328
	c0.057,0.085,1.502-20.806-16.951-22.11c-2.438-0.17,17.263-7.143,28.176-4.592c-0.454-0.113-0.709-1.559-1.446-1.899
	c-7.824-3.883-0.879-5.159-11.764-6.491c-0.68-0.085-1.332-0.142-1.956-0.227c-3.742,0-7.994,0.198-12.359,0.595
	c-1.871,0.595-3.969,1.276-8.646,1.587c-6.435,0.425-22.337,7.852-23.698,8.022C91.76,216.09,91.619,216.459,91.562,216.827
	L91.562,216.827z"/>
<path fill="#5E9DE9" d="M165.546,233.722c13.011,12.019,55.531-10.12,53.348,18.737c-0.907,12.359,1.361,10.29-1.587,28.488
	c-2.041,12.671-0.907-1.899-4.224-7.965c-3.515-6.35,0.595-15.647-15.562-15.647c-4.762,0,12.416-7.143,2.976-6.746
	C193.921,250.871,170.45,238.229,165.546,233.722L165.546,233.722z"/>
<path d="M92.327,217.479c-0.028,0-5.528,6.094-15.619,43.739c1.219,3.061-0.397,9.439-2.041,15.902
	c-1.616,6.321-3.26,12.756-2.183,15.506l0.312,0.879l-0.85,0.397c-1.956,0.879-1.106,2.92-0.425,4.535
	c0.482,1.191,0.907,2.211,0.567,3.061c-2.948,7.313-5.046,22.365-5.754,38.013c-0.652,14.655-0.057,29.82,2.296,39.487l0,0
	c0.227,0.964,0.17,2.183,0.113,3.572c-0.113,3.26-0.283,7.597,3.175,10.488c2.636,2.239,17.263,4.706,35.83,6.236
	c16.356,1.361,35.66,1.956,52.469,0.907c10.743-0.652,21.402-2.268,30.359-3.628c7.795-1.191,6.123-2.013,10.346-2.013
	c0.567-0.085,1.871-2.239,3.232-5.584c1.474-3.685,2.75-8.674,2.75-14.003c0-0.567-0.028-1.106-0.057-1.616l0.028-0.17
	c1.984-13.294,9.099-27.524,11.452-40.762c3.855-21.77,8.107-47.594,8.646-69.024c0.539-21.146,1.162-37.247-7.994-41.131
	c-7.03-2.976-14.91-1.928-21.685-1.049c-4.224,0.567-8.05,1.049-11.169,0.539c-3.43-0.567-8.901-2.948-15.165-5.669
	c-8.476-3.628-18.368-7.909-26.164-9.071h-0.057c-6.775-1.021-19.672-0.425-31.039,1.446c-11.055,1.814-20.58,4.762-21.146,8.504
	C92.554,217.054,92.384,217.366,92.327,217.479L92.327,217.479z M74.696,261.019c9.213-34.526,14.882-43.2,15.931-44.617
	c1.049-4.649,11.14-7.994,22.762-9.921c11.537-1.899,24.69-2.466,31.635-1.446h0.057c8.05,1.191,18.085,5.528,26.646,9.241
	c6.18,2.636,11.565,4.989,14.74,5.528c2.806,0.454,6.491-0.028,10.573-0.567c7.03-0.907,15.165-1.984,22.706,1.191
	c10.091,4.28,9.78,21.09,9.241,43.002c-0.567,21.6-4.819,47.509-8.702,69.335c-2.353,13.181-9.439,27.354-11.424,40.62
	c0.028,0.567,0.028,1.105,0.028,1.587c0,5.613-1.332,10.885-2.891,14.74c-1.644,4.139-3.77,6.775-4.989,6.832
	c-0.028,0-0.057,0-0.085,0c-4.082,0-2.353,0.822-10.063,2.013c-8.957,1.361-19.672,2.976-30.501,3.657
	c-16.923,1.02-36.34,0.454-52.781-0.907c-18.907-1.587-33.987-4.252-36.964-6.718c-4.195-3.515-3.997-8.419-3.855-12.104
	c0.057-1.247,0.085-2.324-0.085-3.033h0.028c-2.409-9.865-3.033-25.2-2.353-40.025c0.709-15.846,2.863-31.153,5.868-38.665
	c0.057-0.113-0.227-0.794-0.539-1.559c-0.907-2.211-2.069-4.989,0.68-6.718c-0.765-3.543,0.822-9.751,2.381-15.874
	c1.616-6.378,3.231-12.643,2.041-14.854L74.696,261.019z"/>
<path d="M166.68,225.87c4.28,1.843,7.115,3.118,11.282,4.082c-13.181-6.265-25.71-13.72-36.17-11.112
	c-4.365,1.077-1.672,0.992,2.721,1.389C152.96,220.937,156.844,221.76,166.68,225.87L166.68,225.87z"/>
<path d="M143.351,255.322c-11.934-11.509-13.266-29.254-33.137-31.861l-4.932-0.567
	C130.141,221.136,131.644,237.917,143.351,255.322L143.351,255.322z"/>
<path d="M83.143,264.364c0.17,14.74-0.17,13.861,5.868,29.395c5.811,14.967,12.444,25.569,28.8,30.217
	c-11.31,1.02-23.584-13.323-28.035-22.876C83.823,288.289,80.819,277.885,83.143,264.364L83.143,264.364z"/>
<path d="M70.415,300.733c11.906,17.745,13.266,36.198,33.137,49.209l4.904,3.146C83.597,341.807,82.094,324.26,70.415,300.733
	L70.415,300.733z"/>
<path d="M74.242,328.824c7.682,9.609,8.561,21.317,21.345,26.674l3.175,1.276C82.746,353.287,81.782,342.204,74.242,328.824
	L74.242,328.824z"/>
<path d="M204.749,347.476c-8.476,6.208-9.95,8.561-16.413,15.931C194.346,358.616,199.193,352.777,204.749,347.476L204.749,347.476z
	"/>
<path d="M213.849,348.27c-17.433,12.728-20.466,17.603-33.732,32.683C192.475,371.117,202.425,359.155,213.849,348.27
	L213.849,348.27z"/>
<path d="M72.598,378.997c45.326,8.249,79.058,9.893,124.384-0.425c6.803-1.531,4.564-1.077,11.565-2.013l-5.783,1.417
	C156.73,389.656,119.086,392.093,72.598,378.997L72.598,378.997z"/>
<path d="M201.093,384.978c-0.283-1.701-0.51-2.806-0.425-4.592c1.134,5.102,2.863,9.723,0.51,14.995
	c-0.992,2.211-0.624,0.935-0.283-1.049C201.575,390.563,201.716,388.862,201.093,384.978L201.093,384.978z"/>
<path d="M179.975,388.663c-0.539-1.701-0.992-2.806-0.822-4.592c2.268,5.131,5.726,9.751,0.992,15.024
	c-1.956,2.183-1.247,0.935-0.539-1.049C180.967,394.248,181.222,392.575,179.975,388.663L179.975,388.663z"/>
<path d="M151.486,391.215c-0.539-1.672-0.935-2.778-0.794-4.564c2.126,5.102,5.357,9.723,0.935,14.995
	c-1.843,2.211-1.191,0.935-0.51-1.049C152.393,396.799,152.62,395.126,151.486,391.215L151.486,391.215z"/>
<path d="M120.163,390.279c0.51-1.701,0.935-2.778,0.794-4.564c-2.126,5.102-5.386,9.723-0.935,14.995
	c1.843,2.211,1.191,0.935,0.51-1.049C119.256,395.863,119.03,394.191,120.163,390.279L120.163,390.279z"/>
<path d="M85.099,385.971c0.51-1.672,0.935-2.778,0.794-4.564c-2.154,5.102-5.386,9.723-0.964,14.995
	c1.843,2.211,1.191,0.935,0.51-1.049C84.163,391.555,83.937,389.882,85.099,385.971L85.099,385.971z"/>
<path fill="#FFA835" d="M166.708,474.78c4.762,1.247,13.238,1.814,14.287,7.937c0.68,3.969-2.835,4.904-5.924,4.961
	c-2.296,0.028-3.288,0.028-5.386,1.162c-2.92,4.025-2.069,7.54-9.213,6.86c-3.6-0.397-6.009-1.446-9.128-1.928
	c-8.901-1.332-10.63,8.702-21.09,1.219c-3.232-2.324-5.868-4.932-8.986-7.228c-3.402-2.381-5.839-3.26-9.496-4.791
	c-3.543-1.446-5.443-3.033-6.491-6.775c-0.397-1.729,1.672-3.77,2.381-5.981c2.693-8.561,2.636-4.025,10.772-4.932
	c6.69-0.907,7.427-2.835,14.655-0.652c3.317,1.02,5.613,1.502,8.986,2.806c5.244,2.041,8.306,1.871,13.266,3.146
	c3.033,0.794,6.52,2.693,9.78,3.713L166.708,474.78z"/>
<path fill="#DC8F2E" d="M162.541,495.785c-0.595,0.028-1.304,0-2.069-0.085c-3.6-0.397-6.009-1.446-9.128-1.928
	c-8.901-1.332-10.63,8.702-21.09,1.219c-3.232-2.324-5.868-4.932-8.986-7.228c-3.402-2.381-5.839-3.26-9.496-4.791
	c-3.543-1.446-5.443-3.033-6.491-6.775c-0.397-1.729,1.672-3.77,2.381-5.981c0.425-1.361,1.332-4.706,2.75-5.216
	c0.567-0.227,0.85-0.057,1.616-0.454c1.219-0.595,2.183-1.474,3.572-0.822c0.68,0.34,1.106,0.482,1.871,0.085
	c1.474-0.822,1.757-2.098,3.543-0.822c1.786,1.304,2.466-0.794,5.046,0.113c1.531,0.567,1.361,0.425,2.948,0.624
	c1.332,0.142,2.608,0.482,3.883,0.85l0.198,0.057c0.652,0.198,1.247,0.368,1.814,0.539c-0.255,0.283-0.51,0.539-0.822,0.794
	c-0.567,1.814-3.572,1.956-5.131,2.098c-1.219,0.085-2.069,0.17-3.288,0.113c-1.332-0.085-2.353,0.397-3.402,1.219
	c-1.757,1.389-0.822,3.515,0.028,5.131c1.247,2.296,4.932,3.855,7.427,9.128c1.814,3.827,8.022,9.269,12.643,7.654
	c0.765-3.232,10.035,1.842,6.831-2.636c-0.142-0.198,1.757-3.09,4.139,0.935C156.73,495.36,160.274,494.708,162.541,495.785
	L162.541,495.785z"/>
<path d="M166.964,473.816c0.765,0.198,1.672,0.397,2.636,0.595c5.046,1.049,11.395,2.381,12.387,8.135
	c0.057,0.368,0.085,0.709,0.085,1.02c0.028,1.587-0.595,2.721-1.559,3.543c-0.879,0.737-2.069,1.162-3.317,1.389
	c-0.709,0.113-1.417,0.17-2.126,0.17h-0.028c-2.013,0.028-2.948,0.057-4.677,0.935c-0.652,0.907-1.106,1.814-1.502,2.636
	c-1.502,2.976-2.523,5.017-8.504,4.45l0,0c-2.041-0.227-3.713-0.652-5.329-1.077c-1.247-0.312-2.466-0.652-3.827-0.85
	c-3.288-0.482-5.584,0.765-7.767,1.956c-3.657,2.013-7.058,3.883-13.748-0.907c-1.757-1.276-3.345-2.608-4.932-3.969
	c-1.332-1.105-2.636-2.211-4.054-3.288c-3.005-2.069-5.244-2.976-8.277-4.224l-1.049-0.425c-1.871-0.794-3.345-1.616-4.479-2.75
	c-1.191-1.191-2.013-2.636-2.58-4.706v-0.057c-0.34-1.417,0.425-2.75,1.247-4.167c0.425-0.737,0.879-1.531,1.134-2.296
	c0.51-1.587,1.502-5.301,3.146-5.924c0.482-0.198,1.332-0.198,1.928-0.312c1.701-0.34,1.928-0.51,3.685-0.057
	c1.899,0.51,1.956-1.758,4.649-0.85c1.814,0.652,2.381-0.34,4.252-0.255c0.964,0.028,1.559,0.142,2.608,0.113
	c2.183-0.113,4.337,0.397,6.435,1.049c0.907,0.283,1.899,0.539,2.835,0.822c1.984,0.567,3.798,1.077,6.18,1.984
	c3.175,1.219,5.528,1.644,8.022,2.069c1.559,0.255,3.203,0.539,5.159,1.049l0,0c1.701,0.454,3.487,1.191,5.301,1.984
	c1.531,0.624,3.061,1.276,4.535,1.729L166.964,473.816z M169.203,476.367c-0.964-0.198-1.871-0.397-2.721-0.624l-1.644-0.482
	c-1.559-0.51-3.146-1.162-4.706-1.843c-1.757-0.737-3.487-1.474-5.046-1.871c-1.814-0.482-3.43-0.737-4.989-1.02
	c-2.58-0.425-5.046-0.85-8.391-2.154c-2.268-0.879-4.054-1.389-6.009-1.928c-0.85-0.255-1.729-0.51-2.891-0.85
	c-2.069-0.624-3.43-0.935-5.669-0.964c-1.757-0.028-2.608-1.446-4.507-0.425c-0.879,0.454-1.502,0.709-2.551,0.51
	c-1.644-0.34-1.276-0.255-2.608,0.595c-1.899,1.219-1.871-1.587-4.677-0.425c-2.721,1.106-2.976,1.984-3.883,4.677
	c-0.113,0.312-0.198,0.652-0.312,0.964c-0.312,0.964-0.822,1.871-1.304,2.721c-0.624,1.049-1.191,2.041-1.049,2.693
	c0.482,1.701,1.134,2.891,2.041,3.798c0.964,0.935,2.211,1.644,3.855,2.324l1.049,0.425c3.175,1.304,5.499,2.239,8.646,4.422
	l0.028,0.028c1.446,1.077,2.806,2.239,4.167,3.402c1.559,1.304,3.09,2.608,4.819,3.827c5.669,4.082,8.532,2.495,11.622,0.794
	c2.466-1.332,5.074-2.778,9.043-2.183c1.417,0.227,2.693,0.567,3.997,0.907c1.559,0.397,3.146,0.822,5.074,1.02
	c4.592,0.454,5.357-1.106,6.491-3.345c0.482-0.935,0.992-1.984,1.786-3.09c0.085-0.142,0.227-0.255,0.369-0.312
	c2.296-1.219,3.345-1.247,5.783-1.276h0.028c0.595-0.028,1.219-0.057,1.814-0.17c0.935-0.142,1.786-0.454,2.381-0.935
	c0.539-0.454,0.85-1.077,0.85-1.984c0-0.198-0.028-0.454-0.085-0.709C179.266,478.465,173.653,477.303,169.203,476.367
	L169.203,476.367z"/>
<path d="M156.589,479.542c1.531,0.964,1.928,1.786,3.146,2.835c1.587,1.276,4.904,2.353,7.143,2.92
	c-2.976-0.028-6.293-0.794-8.079-2.438c-0.652-0.652-1.191-1.446-1.672-2.211c-0.142-0.255-0.652-0.964-0.737-1.191L156.589,479.542
	z"/>
<path d="M134.734,476.566c2.126,2.154,2.693,3.26,4.394,5.244c2.211,2.466,6.888,6.123,10.006,8.419
	c-4.195-2.324-8.816-5.641-11.31-8.646c-0.935-1.162-1.672-2.353-2.324-3.515c-0.227-0.368-0.964-1.474-1.049-1.729L134.734,476.566
	z"/>
<path fill="#426FA7" d="M88.982,255.492c1.928-20.891,10.176-22.337,17.065-23.811c6.888-1.502,13.209-1.049,28.346,15.704
	c15.137,16.724,45.184,43.682,56.069,48.926c10.885,5.244,12.643,5.357,14.542,5.669c1.871,0.34,2.721,0.283,3.543,0
	c0.822-0.283,2.353-0.539,3.487-0.057c1.162,0.51,1.701,1.134,1.899,1.672c0.17,0.539-0.935,11.112-2.523,18
	c-1.587,6.888-5.528,13.748-6.463,15.562c-0.964,1.814-3.855,4.309-6.463,1.842c-2.636-2.494-3.515-2.863-5.811-3.373
	c-2.296-0.539-21.798-2.268-30.104-3.912c-8.306-1.644-29.735-4.45-45.468-16.809c-11.48-9.014-20.409-20.665-25.002-34.639
	C90.088,274.03,88.33,262.352,88.982,255.492L88.982,255.492z"/>
<path fill="#2B5383" d="M119.512,247.356c-9.609,14.258-5.301,22.592,1.219,30.132c6.917,7.994,16.724,14.939,27.751,20.409
	c2.75,1.361-19.672,4.167-10.375,5.726c7.654,1.304,29.509,14.343,35.546,14.117c6.321-0.255,23.159,7.342,28.743-1.871
	c0.368-0.624,5.528-9.638,5.187-5.641c-0.255,3.118,1.049,11.14-1.077,14.117c-1.247,1.786-0.142,9.269-3.288,16.696
	c-1.02,0.17-2.466-0.255-4.989-1.616c-12.813-6.831-16.243-2.551-28.375-6.265c-2.863-0.879-13.294-1.077-17.943-3.005
	c-6.576-2.693-24.888-7.512-29.452-11.112c-0.652-0.51-1.389-1.02-2.211-1.502l0,0l0,0c-0.737-0.482-1.502-0.935-2.324-1.389
	c-3.883-2.523-11.877-8.702-18.454-19.956l-0.028-0.028c-0.113-0.425-0.227-0.539-0.255-0.425
	c-2.154-1.502-12.614-15.789-10.8-39.26c1.843-23.471,0.51-4.365,0.51-4.904c4.45-13.181,10.545-18.369,15.676-19.616
	c0,0,3.997,1.191,8.617,4.309C116.62,238.569,118.661,244.465,119.512,247.356L119.512,247.356z"/>
<path fill="#5E9DE9" d="M130.737,245.004c0,0,1.559,10.403,14.513,23.896c12.926,13.493,31.861,27.014,31.861,27.014l-14.23-2.835
	c0,0,8.419,7.71,20.976,10.687c7.994,1.928,15.392,0.397,19.701-0.964C181.959,297.586,149.417,264.619,130.737,245.004
	L130.737,245.004z"/>
<path d="M89.606,261.133c0,0.567-0.425,1.02-0.992,1.02c-0.539,0-0.992-0.454-0.992-1.02c0-8.844,1.871-15.647,4.847-20.579
	c2.693-4.507,6.321-7.455,10.261-9.071s8.22-1.871,12.217-0.935c3.968,0.935,7.654,3.005,10.545,6.038l2.183,2.296
	c18.113,19.134,56.523,59.698,79.087,62.476c0.567,0.057,1.02-0.17,1.474-0.368c1.02-0.51,2.069-1.02,4.025-0.085
	c0.198,0.113,0.368,0.17,0.51,0.255c1.843,0.822,2.636,1.162,2.126,5.216l-0.255,2.013c-1.446,11.877-2.58,21.033-9.439,30.246
	c-1.134,1.502-2.438,2.551-4.082,2.58c-1.559,0.057-3.288-0.85-5.272-3.175c-1.219-1.417-6.945-2.013-15.052-2.891
	c-17.915-1.871-47.112-4.932-68.91-22.479c-2.041-1.644-5.272-5.159-7.937-8.702c-2.239-2.976-4.139-6.009-4.677-8.079
	c-0.142-0.539,0.198-1.077,0.737-1.191c0.51-0.142,1.049,0.17,1.191,0.709c0.454,1.757,2.211,4.564,4.337,7.37
	c2.608,3.43,5.669,6.803,7.597,8.362c21.345,17.15,50.173,20.183,67.861,22.025c8.589,0.907,14.627,1.559,16.356,3.572
	c1.559,1.814,2.75,2.523,3.742,2.494c0.907-0.028,1.729-0.737,2.494-1.757c6.548-8.816,7.654-17.745,9.071-29.339l0.255-1.984
	c0.312-2.608-0.057-2.778-0.964-3.175c-0.17-0.085-0.368-0.17-0.567-0.255c-1.077-0.539-1.672-0.255-2.268,0.057
	c-0.737,0.34-1.446,0.709-2.58,0.567c-23.301-2.863-62.05-43.795-80.306-63.071l-2.183-2.296c-2.608-2.778-5.953-4.649-9.553-5.471
	c-3.6-0.85-7.455-0.624-10.998,0.822c-3.572,1.446-6.86,4.167-9.326,8.249C91.392,246.223,89.606,252.657,89.606,261.133
	L89.606,261.133z"/>
<path d="M207.414,306.912c-0.028,2.466-1.644,19.701-6.094,20.466c-0.085,0.085-0.057,0.057-0.283,0.142
	C201.008,326.982,207.357,307.054,207.414,306.912L207.414,306.912z"/>
<path d="M137.455,310.569c21.685,8.731,22.252,9.241,44.022,13.465c3.742,0.737,7.257,1.701,11.112,2.381
	c-0.312,0.397-1.531,0.283-1.928,0.255C168.806,325.508,156.929,321.397,137.455,310.569L137.455,310.569z"/>
<path fill="#1F1F1F" d="M205.685,338.008c6.746-2.296,24.293-5.443,29.48-12.699c1.871-2.608-6.094-12.161-13.465-15.931
	c-3.685-1.871-5.839-2.92-7.058-3.487c0,0.482-0.028,1.077-0.113,1.814l-0.227,1.814c-1.361,10.885-2.381,19.247-8.646,27.666
	c-0.113,0.142-0.198,0.255-0.312,0.368C205.486,337.725,205.6,337.867,205.685,338.008L205.685,338.008z"/>
<path d="M206.252,336.846c1.474-0.482,3.288-0.992,5.329-1.531c7.88-2.183,19.162-5.272,22.904-10.46
	c0.397-0.709-0.652-2.693-2.466-5.074c-2.013-2.636-4.961-5.528-8.079-7.682c-0.964-0.652-1.928-1.247-2.863-1.729
	c-3.203-1.644-5.244-2.636-6.491-3.232c0.113-1.247,0.085-2.041-0.113-2.608c1.02,0.454,3.232,1.502,7.852,3.855
	c0.992,0.51,2.013,1.134,3.005,1.814c3.203,2.211,6.236,5.187,8.306,7.909c2.239,2.948,3.288,5.754,2.353,7.427l-0.057,0.057
	l-0.113,0.17c-4.365,6.095-16.157,9.326-24.435,11.594c-2.239,0.624-4.224,1.162-5.641,1.644c-0.34,0.142-0.68,0.113-0.879-0.17
	l-0.312-0.425c0.397-0.34,0.737-0.737,1.106-1.219c0.142-0.198,0.283-0.369,0.425-0.567l0,0L206.252,336.846z"/>
<path fill="#00DBFA" d="M128.554,280.522c-2.693,0.312-3.883,0.255-6.463,0.17h-0.709c-1.559-0.057-0.879,0.368-1.247-1.389
	c-0.312-1.446-0.964-2.75-1.502-4.11c-2.041,1.843-4.082,3.685-6.123,5.528c1.134,4.082,2.268,8.192,3.231,12.331
	c0.17,0.794,0.283,0.794,1.162,0.368c2.778-1.361,3.94-6.066,6.463-8.334C125.067,283.555,126.853,282.052,128.554,280.522
	L128.554,280.522z M113.162,263.287c-0.879,0.737-1.672,1.446-2.523,2.211c3.203-0.34,4.989,0.028,7.965,0.085
	c0.425,1.984,0.879,3.969,1.304,5.953c1.984-1.786,4.025-3.572,5.981-5.386c-1.077-3.317-2.126-5.953-2.778-9.496
	c-0.113-0.624-0.227-1.247-0.369-1.871c-2.494,2.098-4.706,4.365-7.2,6.491C114.749,261.955,113.956,262.635,113.162,263.287
	L113.162,263.287z M111.008,279.501c2.324-2.098,4.677-4.195,7.002-6.293c-0.397-1.871-0.794-3.713-1.134-5.613
	c-3.628-0.255-4.847-0.255-8.617,0.227c-2.636,0.34-4.989,0.368-7.597,0.454c0.822,3.798,1.786,7.342,2.494,11.197l0.085,0.312
	c2.466-0.057,4.932-0.17,7.398-0.255L111.008,279.501z M127.42,267.369c-2.353,2.069-4.677,4.167-7.03,6.236
	c0.567,1.729,1.304,3.146,1.729,4.961c2.58,0.17,3.742,0.255,6.435,0c3.175-0.312,4.819-0.028,7.795,0.028
	c0.482,0.028,0.935,0,1.417,0c-0.482-2.211-0.765-3.061-1.644-5.102c-1.049-2.523-1.191-3.572-1.247-6.406
	c-2.381,0.085-4.734,0.17-7.115,0.255L127.42,267.369z"/>
<path d="M127.108,281.174c-1.786,0.142-2.976,0.113-4.989,0.057l-0.85-0.028c-0.312-0.028-0.51,0-0.652,0
	c-0.368,0.028-0.539,0.028-0.709-0.17c-0.142-0.142-0.17-0.283-0.17-0.567c-0.028-0.198-0.028-0.482-0.142-0.992
	c-0.227-1.049-0.652-2.041-1.049-3.005l-0.17-0.397l-5.272,4.734c0.539,1.928,1.077,3.883,1.616,5.839
	c0.539,2.041,1.049,4.11,1.531,6.236c0.057,0.227-0.028,0.283,0.028,0.312c0.028,0,0.142-0.085,0.454-0.227
	c1.389-0.68,2.381-2.438,3.402-4.195c0.879-1.474,1.729-2.976,2.92-4.025c1.02-0.935,2.069-1.871,3.146-2.778L127.108,281.174z
	 M122.346,280.182c2.466,0.085,3.657,0.142,6.236-0.142l0.283,0.85c-0.68,0.595-1.361,1.191-2.041,1.786
	c-1.049,0.907-2.126,1.843-3.118,2.75c-1.02,0.907-1.843,2.324-2.665,3.713c-1.106,1.956-2.211,3.855-3.969,4.706
	c-0.595,0.283-0.907,0.425-1.247,0.34c-0.369-0.113-0.482-0.368-0.595-0.935c-0.482-2.041-1.02-4.11-1.559-6.18
	c-0.539-2.013-1.106-4.082-1.701-6.151l-0.085-0.283l0.283-0.255c1.474-1.332,2.466-2.211,3.43-3.09l3.288-2.948l0.255,0.595
	c0.142,0.425,0.283,0.709,0.397,0.992c0.425,1.02,0.879,2.069,1.106,3.175c0.113,0.51,0.142,0.85,0.142,1.077
	c0.17,0,0.397-0.028,0.68-0.028S122.063,280.182,122.346,280.182L122.346,280.182z M120.73,280.267L120.73,280.267L120.73,280.267z
	 M120.759,280.295c0.028,0.028,0.028,0,0-0.028h-0.028l0,0L120.759,280.295z M113.474,263.656c-0.425,0.368-0.85,0.709-1.276,1.077
	l-0.142,0.142c1.531-0.085,2.778,0,4.11,0.085c0.794,0.028,1.587,0.085,2.551,0.113h0.368l0.057,0.34
	c0.397,1.814,0.765,3.487,1.134,5.159l1.134-1.02c1.332-1.191,2.665-2.381,3.883-3.487c-0.198-0.595-0.397-1.191-0.595-1.757
	c-0.85-2.438-1.587-4.677-2.098-7.455c-0.057-0.34-0.113-0.652-0.17-0.935l-0.057-0.198c-1.049,0.907-2.069,1.871-3.09,2.806
	c-1.106,1.049-2.239,2.098-3.43,3.118l-1.191,1.02L113.474,263.656z M111.575,264.024c0.425-0.368,0.85-0.737,1.304-1.105
	c0.312-0.255,0.709-0.595,1.162-0.992l1.191-0.992c1.162-0.992,2.268-2.041,3.373-3.061c1.247-1.162,2.494-2.324,3.827-3.43
	l0.652-0.567l0.17,0.709c0.085,0.34,0.142,0.652,0.198,0.964c0.085,0.34,0.142,0.652,0.198,0.935c0.482,2.75,1.247,4.961,2.069,7.37
	c0.227,0.68,0.454,1.361,0.68,2.069l0.113,0.312l-0.283,0.255c-1.474,1.332-2.835,2.551-4.195,3.77l-2.466,2.211l-0.227-0.907
	c-0.397-1.871-0.794-3.742-1.191-5.471c-0.794-0.028-1.531-0.085-2.239-0.113c-1.672-0.113-3.146-0.198-5.301,0.028l-0.312-0.85
	C110.724,264.761,111.149,264.393,111.575,264.024L111.575,264.024z M110.866,278.991l6.576-5.896
	c-0.198-0.85-0.368-1.701-0.539-2.494c-0.17-0.85-0.34-1.701-0.51-2.523c-1.616-0.113-2.721-0.17-3.855-0.142
	c-1.191,0.028-2.438,0.142-4.28,0.397c-2.268,0.283-4.309,0.34-6.463,0.425h-0.482c0.255,1.134,0.539,2.296,0.822,3.458
	c0.567,2.324,1.106,4.62,1.559,7.058c1.276-0.057,2.551-0.085,3.855-0.142c1.049-0.057,2.098-0.085,3.175-0.113L110.866,278.991z
	 M118.349,273.548l-7.2,6.463l-0.567,0.028c-1.077,0.028-2.126,0.057-3.203,0.113c-1.389,0.057-2.806,0.113-4.224,0.142
	l-0.397,0.028l-0.113-0.68c-0.454-2.409-0.992-4.706-1.559-7.03c-0.312-1.332-0.652-2.693-0.964-4.139l-0.142-0.68l1.956-0.085
	c2.126-0.057,4.139-0.113,6.35-0.397c1.899-0.255,3.175-0.368,4.422-0.397s2.466,0.028,4.28,0.17h0.34l0.057,0.34
	c0.17,0.964,0.369,1.899,0.567,2.806c0.198,0.964,0.397,1.899,0.595,2.806l0.057,0.283L118.349,273.548z M127.562,267.851
	l-1.332,1.191c-1.729,1.559-3.458,3.118-5.216,4.649c0.198,0.567,0.397,1.077,0.595,1.587c0.369,0.907,0.709,1.786,0.964,2.806
	c2.296,0.142,3.487,0.198,6.009-0.028c2.268-0.227,3.77-0.142,5.499-0.057c0.737,0.028,1.531,0.057,2.381,0.085
	c0.198,0,0.425,0,0.624,0c-0.17-0.737-0.34-1.304-0.51-1.871c-0.227-0.737-0.51-1.446-0.935-2.466
	c-0.539-1.304-0.85-2.211-1.02-3.175c-0.17-0.85-0.227-1.729-0.283-2.948L127.562,267.851z M125.578,268.361l1.672-1.502
	l8.135-0.283l0.028,0.425c0.028,1.389,0.085,2.324,0.255,3.232c0.17,0.908,0.454,1.757,0.964,3.005
	c0.425,1.02,0.709,1.757,0.964,2.523c0.255,0.765,0.425,1.531,0.68,2.636l0.142,0.68l-0.737,0.028h-0.709
	c-0.255,0.028-0.51,0.028-0.737,0c-0.935,0-1.672-0.057-2.381-0.085c-1.701-0.085-3.175-0.17-5.357,0.057
	c-2.665,0.255-3.855,0.17-6.293,0l-0.539-0.028l-0.057-0.283c-0.255-1.077-0.624-2.013-0.992-2.976
	c-0.255-0.624-0.51-1.247-0.737-1.956l-0.085-0.312l0.283-0.255C121.921,271.649,123.735,270.005,125.578,268.361L125.578,268.361z"
	/>
<path fill="#234165" d="M108.06,155.315c0,0-0.51,11.055,4.706,19.446c5.244,8.362,18.283,17.376,18.283,17.376
	s-39.203-12.643-35.206-25.115C99.839,154.55,107.266,155.514,108.06,155.315L108.06,155.315z"/>
<path d="M101.426,176.348c-6.378-5.924-7.54-8.249-1.162-15.902c2.381-2.863,3.798-3.487,7.257-4.394
	c-0.255,9.213,1.134,14.003,5.584,21.742c3.912,5.754,6.605,6.52,11.424,10.658c1.474,1.276-2.183-0.737-2.665-0.935
	c-5.584-2.154-8.135-2.551-13.408-5.981C106.217,180.062,103.411,178.078,101.426,176.348L101.426,176.348z M98.96,176.122
	c6.208,5.981,11.962,9.354,20.069,12.444c5.074,1.928,9.354,4.025,14.797,5.216c1.474,0.312,2.438-0.794,0.567-1.956
	c-4.252-2.636-7.398-3.883-11.452-7.228c-9.156-7.654-13.946-15.08-13.493-27.808c0.113-3.118-0.198-3.203-3.487-2.211
	c-5.216,1.729-9.099,6.69-11.055,11.65c-1.814,4.677,0.567,6.52,3.572,9.411L98.96,176.122z"/>
<path fill="#426FA7" d="M136.604,15.709c2.863-4.649,4.876-5.443,10.432-5.443c3.94,0,10.035,1.361,12.813,4.479l0.397,0.454
	l0.283,0.368c0.992,1.559,1.729,3.345,2.778,5.046c4.224,6.775,6.236,7.994-0.085,14.088c-3.175,3.061-5.244,4.791-9.921,5.357
	c-3.742,0.368-7.058-0.482-10.715-1.446c-9.213-2.523-7.455-6.066-9.553-13.805c-0.907-3.175,0.879-4.876,2.494-7.398
	c0.198-0.312,0.369-0.595,0.567-0.879L136.604,15.709z"/>
<path d="M137.455,16.248c1.361-2.154,2.466-3.402,3.827-4.11l0,0c1.389-0.68,3.175-0.85,5.783-0.879
	c2.098,0,4.791,0.397,7.257,1.276c1.928,0.652,3.685,1.616,4.791,2.863l0.368,0.397l0.227,0.312
	c0.454,0.737,0.879,1.531,1.276,2.324c0.482,0.879,0.935,1.786,1.502,2.665c0.539,0.879,0.907,1.446,1.247,1.984
	c2.948,4.592,3.855,6.009-1.219,10.885c-1.531,1.474-2.806,2.665-4.224,3.487c-1.389,0.822-2.948,1.361-5.131,1.616
	c-1.786,0.17-3.458,0.057-5.131-0.227c-1.701-0.255-3.43-0.709-5.244-1.191h-0.028c-6.548-1.814-6.973-4.195-7.767-8.504
	c-0.255-1.332-0.539-2.806-0.992-4.564l0,0c-0.624-2.211,0.368-3.685,1.587-5.414c0.283-0.425,0.567-0.85,0.794-1.191
	C136.746,17.382,137.115,16.815,137.455,16.248L137.455,16.248z M140.318,10.352c-1.701,0.879-3.033,2.324-4.564,4.762
	c-0.368,0.567-0.709,1.162-1.077,1.729c-0.283,0.425-0.539,0.794-0.765,1.134c-1.474,2.154-2.721,3.94-1.843,7.058
	c0.425,1.616,0.709,3.061,0.935,4.365c0.964,5.187,1.474,8.022,9.298,10.148l0.057,0.028c1.871,0.482,3.628,0.964,5.443,1.247
	c1.814,0.312,3.685,0.425,5.641,0.227h0.028c2.466-0.312,4.28-0.907,5.896-1.871c1.587-0.935,2.948-2.183,4.564-3.742
	c6.208-6.009,5.102-7.739,1.474-13.38c-0.425-0.68-0.907-1.389-1.247-1.956c-0.51-0.822-0.964-1.672-1.389-2.523
	c-0.454-0.85-0.907-1.701-1.389-2.495l-0.34-0.482l-0.057-0.057l-0.397-0.454c-1.389-1.531-3.458-2.665-5.669-3.458
	c-2.693-0.935-5.641-1.361-7.937-1.361C144.06,9.274,142.047,9.501,140.318,10.352L140.318,10.352z"/>
<path d="M146.866,21.407c0.794-0.397-2.183-9.865-2.466-11.055c-0.028-0.17-1.871-14.457-2.835-9.184
	C140.8,5.363,143.578,18.884,146.866,21.407L146.866,21.407z"/>
<path d="M153.017,19.961c0.879,0.227,3.118-6.435,3.487-7.2c0.057-0.113,5.669-8.702,2.211-6.406
	C155.937,8.169,151.486,16.871,153.017,19.961L153.017,19.961z"/>
<path d="M156.759,20.953c0.283,0.85,7.257-0.312,8.135-0.34c0.113,0,10.602,0.85,6.746-1.106
	C168.551,17.977,158.601,18.204,156.759,20.953L156.759,20.953z"/>
<path d="M125.804,21.775c0.283,0.85,7.257-0.312,8.135-0.34c0.113,0,10.602,0.85,6.746-1.077
	C137.597,18.799,127.647,19.026,125.804,21.775L125.804,21.775z"/>
<path d="M131.644,35.892c0.624,0.652,4.054-2.239,4.535-2.523c0.057-0.028,6.605-2.154,3.317-2.75
	C136.888,30.137,131.219,33.029,131.644,35.892L131.644,35.892z"/>
<path fill="#2B5383" d="M231.905,100.89c0.567-4.847-0.227-9.411-0.482-14.287c-0.283-5.301-2.381-8.192-3.883-13.068
	c-0.935-3.118-1.672-4.28-3.883-6.69c-1.871-2.013-3.6-3.543-5.471-5.698c-1.332-1.531-2.693-2.948-4.139-4.365
	c-3.288-3.061-5.783-4.706-9.383-7.228c-3.94-2.806-4.535-4.139-9.524-6.066c-2.863-1.077-5.443-1.842-8.306-3.09
	c-0.425-0.198-0.879-0.369-1.332-0.567c-3.288-1.389-7.54-2.693-10.97-3.855c-6.973-2.353-11.14-3.997-18.652-3.685
	c-7.852,0.312-14.854,3.061-20.665,8.079c-2.438,2.154-3.827,4.989-6.265,7.427c-3.317,3.288-4.847,3.685-6.832,8.306
	c-1.247,2.976-1.644,4.706-3.458,7.625c-0.935,1.474-2.183,3.402-2.891,4.989c-7.228,16.753,6.803,32.06,6.803,32.06
	c10.176-4.819,24.86-8.901,35.915-10.885c19.134-3.402,37.247-3.232,56.324,2.693C219.801,94.144,227.398,98.056,231.905,100.89
	L231.905,100.89z"/>
<path fill="#426FA7" d="M219.008,78.582c-1.814-3.487-34.781-12.501-39.458-12.586c-4.564-0.085-22.082-2.239-21.43-8.532
	c0.624-6.236,3.997-14.91,11.254-15.874c9.354-1.276,24.038,4.422,31.436,10.743c4.819,4.11,11.735,9.638,14.683,14.768
	c0.368,0.68,11.679,9.609,3.288,11.877L219.008,78.582z"/>
<path d="M232.897,101.032c0.425-3.515,0.142-6.831-0.17-10.205c-0.113-1.389-0.227-2.778-0.312-4.224
	c-0.198-3.685-1.219-6.236-2.324-8.986c-0.539-1.332-1.106-2.721-1.587-4.337l-0.028-0.028c-0.482-1.616-0.907-2.75-1.531-3.798
	c-0.624-1.049-1.417-2.013-2.551-3.26h-0.028c-0.737-0.794-1.502-1.559-2.268-2.324c-1.049-1.077-2.069-2.098-3.175-3.345
	c-0.68-0.794-1.361-1.559-2.041-2.268c-0.709-0.709-1.417-1.446-2.183-2.154v-0.028c-2.92-2.721-5.216-4.337-8.164-6.406l0,0
	l-1.304-0.935c-1.162-0.794-2.013-1.474-2.778-2.098c-1.956-1.559-3.317-2.665-7.002-4.054c-1.162-0.454-2.211-0.822-3.232-1.191
	c-1.672-0.595-3.317-1.162-5.017-1.899l-1.332-0.567c-2.523-1.077-5.584-2.069-8.419-3.005c-0.737-0.227-1.446-0.482-2.636-0.879
	l-1.474-0.51c-6.208-2.098-10.375-3.515-17.546-3.232c-4.025,0.17-7.852,0.935-11.395,2.324c-3.572,1.389-6.86,3.402-9.865,5.981
	v0.028c-1.389,1.219-2.438,2.608-3.487,4.025c-0.85,1.162-1.757,2.353-2.806,3.402c-0.822,0.822-1.587,1.502-2.239,2.098
	c-1.956,1.758-3.26,2.891-4.819,6.491v0.057c-0.34,0.822-0.624,1.531-0.879,2.211c-0.68,1.758-1.219,3.203-2.523,5.272l-0.312,0.51
	c-0.879,1.417-1.956,3.118-2.608,4.564l-0.028,0.057c-7.455,17.32,6.973,33.052,7.002,33.109c0.34,0.369,0.85,0.454,1.247,0.227
	c4.706-2.239,10.432-4.309,16.328-6.094c6.633-2.013,13.465-3.657,19.276-4.706c9.496-1.672,18.765-2.466,27.978-2.126
	c9.241,0.369,18.454,1.871,27.893,4.791l0.028,0.028c2.239,0.68,5.046,1.899,7.852,3.26c3.288,1.587,6.576,3.402,8.986,4.904
	c0.454,0.312,1.077,0.17,1.361-0.283C232.841,101.287,232.897,101.174,232.897,101.032L232.897,101.032z M230.743,90.884
	c0.255,2.806,0.482,5.528,0.312,8.334c-2.268-1.361-5.046-2.863-7.824-4.195c-2.891-1.417-5.783-2.665-8.135-3.402h-0.028
	c-9.638-2.976-19.02-4.507-28.403-4.876c-9.383-0.368-18.765,0.454-28.403,2.154c-5.896,1.049-12.813,2.693-19.531,4.734
	c-5.669,1.729-11.225,3.742-15.931,5.924c-2.381-2.891-12.274-16.101-6.123-30.387l0,0c0.595-1.361,1.644-3.005,2.494-4.365
	l0.34-0.51c1.361-2.211,1.956-3.742,2.665-5.584c0.255-0.652,0.51-1.361,0.85-2.183l0,0c1.389-3.231,2.58-4.28,4.365-5.868
	c0.652-0.595,1.389-1.247,2.268-2.154c1.191-1.162,2.126-2.409,3.005-3.628c1.02-1.332,1.984-2.636,3.232-3.742l0,0
	c2.835-2.438,5.924-4.337,9.298-5.641c3.345-1.304,6.945-2.041,10.772-2.211c6.775-0.255,10.8,1.106,16.809,3.146l1.474,0.51
	c0.482,0.142,1.559,0.51,2.665,0.879c2.806,0.907,5.811,1.899,8.249,2.92l1.332,0.567c1.814,0.794,3.458,1.389,5.159,1.984
	c1.049,0.369,2.126,0.737,3.146,1.134c3.373,1.304,4.649,2.324,6.435,3.742c0.794,0.624,1.701,1.332,2.891,2.183l1.304,0.935l0,0
	c2.891,2.013,5.131,3.6,7.937,6.236c0.709,0.68,1.417,1.361,2.098,2.069c0.68,0.737,1.361,1.446,1.984,2.183
	c1.134,1.304,2.211,2.381,3.288,3.458c0.709,0.709,1.417,1.417,2.211,2.268c1.049,1.162,1.757,2.013,2.268,2.92
	c0.539,0.879,0.907,1.871,1.361,3.317v0.057c0.51,1.672,1.106,3.118,1.644,4.479c1.077,2.608,2.041,4.989,2.211,8.362
	C230.488,88.049,230.63,89.467,230.743,90.884L230.743,90.884z"/>
<path d="M125.067,74.812c3.26-3.061,6.094-17.405,15.761-26.079c2.438-2.211,11.679-7.824,12.359-8.731
	c1.502-1.984-6.265,1.899-6.293,1.928c-10.488,5.953-19.928,19.162-22.025,31.238C124.841,73.423,124.472,74.982,125.067,74.812
	L125.067,74.812z"/>
<path d="M147.433,59.958c1.672-1.559,3.146-8.901,8.079-13.351c1.247-1.134,5.981-3.997,6.321-4.479
	c0.794-1.021-3.203,0.992-3.203,0.992c-5.386,3.061-10.205,9.808-11.282,16.016C147.319,59.249,147.121,60.071,147.433,59.958
	L147.433,59.958z"/>
<path fill="#426FA7" d="M236.809,118.38c0,0-19.304-13.521-47.452-16.866c-28.176-3.345-68.457,15.761-80.05,27.354
	c-1.134-5.046-2.494-15.307-1.446-20.409c0.624-3.061,1.276-5.017,1.644-8.277c0.482-4.734,0.964-7.257,3.798-11.31
	c1.106-1.531,2.154-2.608,3.685-3.713c3.912-2.551,4.535-2.58,8.646-4.054c4.62-1.644,8.447-4.309,13.493-5.981
	c3.288-1.077,6.605-2.069,9.921-3.061l0.482-0.113c2.438-0.737,4.876-1.276,7.398-1.786c2.693-0.51,4.989-0.085,7.739-0.425
	c5.017-0.624,8.249-1.814,13.606-1.729c4.337,0.085,8.617,0.454,12.954,0.879c3.317,0.312,4.904,0,8.419,0.822
	c3.458,0.794,5.839,1.984,9.043,3.118c0.964,0.34,1.644,0.51,2.665,0.68c4.904,0.709,6.917,0.34,11.509,2.835
	c2.324,1.276,4.649,2.636,7.002,3.94c3.997,2.239,5.613,4.649,8.277,8.277c3.033,4.11,4.507,8.901,4.932,14.003
	C243.811,113.561,236.809,118.38,236.809,118.38L236.809,118.38z"/>
<path fill="#5E9DE9" d="M236.044,117.87c-3.827-2.495-21.798-13.408-46.687-16.356c-10.12-1.191-21.827,0.51-33.165,3.713
	c-0.369-0.085-0.624-0.113-0.737-0.113c0-3.997,10.942-9.326,13.89-10.715c5.839-2.75,20.75-1.956,26.986-0.113
	c9.071,2.665,18.113,6.208,27.553,8.079c7.37,1.474,7.682,4.167,12.472,6.775c-0.113,1.191,3.061,2.835-1.02,6.491
	C234.91,115.999,235.477,117.019,236.044,117.87L236.044,117.87z"/>
<path fill="#2B5383" d="M137.993,111.662c-12.813,5.471-23.556,12.076-28.687,17.206c-1.134-5.046-2.494-15.307-1.446-20.409
	c0.624-3.061,1.276-5.017,1.644-8.277c0.482-4.734,0.964-7.257,3.798-11.31c1.106-1.531,2.154-2.608,3.685-3.713
	c3.912-2.551,4.535-2.58,8.646-4.054c4.62-1.644,8.447-4.309,13.493-5.981c3.288-1.077,6.605-2.069,9.921-3.061l0.482-0.113
	c2.438-0.737,4.876-1.276,7.398-1.786c2.693-0.51,4.989-0.085,7.739-0.425c5.017-0.624,8.249-1.814,13.606-1.729
	c4.337,0.085,8.617,0.454,12.954,0.879c3.317,0.312,4.904,0,8.419,0.822c3.458,0.794,5.839,1.984,9.043,3.118
	c0.964,0.34,1.644,0.51,2.665,0.68c4.904,0.709,6.917,0.34,11.509,2.835c2.324,1.276,4.649,2.636,7.002,3.94l0.17,0.085
	c-0.652,0.425-1.361,0.482-2.154-0.057c-3.543-2.409-42.038-7.03-48.359-6.775c-4.479,0.198-15.704-0.369-19.899,1.361
	c-11.254,4.62-32.797,10.97-36.085,19.559c-2.126,5.613,0.227,14.003,8.079,15.194C133.345,109.904,137.568,110.301,137.993,111.662
	L137.993,111.662z"/>
<path d="M189.471,100.522c-12.472-1.474-27.298,1.389-40.989,6.066c-16.469,5.613-31.323,13.89-38.551,20.324
	c-0.539-2.75-1.049-6.35-1.304-9.836c-0.227-3.232-0.227-6.321,0.198-8.447c0.227-0.964,0.425-1.814,0.595-2.636
	c0.425-1.786,0.822-3.43,1.077-5.726c0.227-2.296,0.454-4.082,0.964-5.726c0.51-1.616,1.304-3.175,2.665-5.102
	c0.51-0.709,1.02-1.332,1.559-1.899c0.539-0.539,1.134-1.049,1.843-1.531c3.231-2.126,4.167-2.438,6.86-3.402
	c0.425-0.142,0.907-0.312,1.559-0.539c2.211-0.822,4.224-1.814,6.293-2.835c2.268-1.134,4.564-2.296,7.2-3.175
	c1.729-0.567,3.345-1.077,4.932-1.559l0,0c1.757-0.539,3.373-1.02,4.961-1.474l0.454-0.142c1.219-0.34,2.409-0.652,3.628-0.935
	c1.219-0.284,2.438-0.567,3.685-0.794c1.389-0.284,2.721-0.284,4.054-0.284h0.057c1.134,0,2.296,0,3.572-0.142
	c1.786-0.227,3.317-0.51,4.819-0.794c2.721-0.51,5.272-0.992,8.646-0.935c2.126,0.057,4.28,0.17,6.435,0.312
	c2.126,0.142,4.28,0.34,6.435,0.567h0.057c1.219,0.113,2.154,0.142,3.033,0.17c1.616,0.057,3.033,0.113,5.216,0.624
	c2.239,0.51,4.054,1.219,5.953,1.956c0.935,0.368,1.899,0.765,2.948,1.134c0.539,0.17,0.992,0.312,1.417,0.425
	c0.454,0.113,0.907,0.198,1.446,0.284l0.028,0.028c1.106,0.142,2.069,0.255,2.976,0.369c2.863,0.312,4.791,0.51,8.164,2.353
	c1.446,0.765,2.75,1.502,4.054,2.239c0.907,0.539,1.843,1.049,2.948,1.701c4.025,2.324,5.357,4.649,7.71,8.504
	c3.26,5.301,4.479,9.865,4.337,16.157c-0.142,4.45,0.283,3.033-1.247,7.143c-0.652,1.758-2.58,2.239-3.515,3.855
	C224.252,105.171,206.535,102.619,189.471,100.522L189.471,100.522z M189.215,102.506c27.808,3.288,46.828,16.526,46.885,16.583
	c0.057,0.057,0.113,0.085,0.142,0.113c0.482,0.312,1.077,0.198,1.389-0.255c2.268-3.458,3.373-2.268,4.394-6.265
	c1.247-4.847,1.077-9.581,0.198-14.428l-0.17-0.907c-0.992-5.187-3.487-8.504-6.18-12.841c-1.559-2.551-2.92-3.6-5.499-5.102h-0.028
	c-0.85-0.482-1.899-1.077-2.948-1.672c-1.389-0.794-2.778-1.587-4.054-2.268l0,0c-3.713-2.013-5.811-2.239-8.901-2.58
	c-0.879-0.113-1.814-0.198-2.92-0.369c-0.482-0.085-0.879-0.17-1.276-0.255c-0.397-0.113-0.794-0.227-1.219-0.368
	c-1.049-0.369-1.984-0.737-2.92-1.106c-1.956-0.765-3.798-1.502-6.208-2.069c-2.381-0.539-3.912-0.595-5.584-0.652
	c-0.907-0.028-1.843-0.057-2.92-0.17h-0.057c-2.154-0.227-4.337-0.425-6.491-0.567c-2.183-0.142-4.337-0.255-6.548-0.312
	c-3.6-0.057-6.236,0.425-9.043,0.964c-1.474,0.255-3.005,0.539-4.706,0.765c-1.162,0.142-2.239,0.142-3.317,0.142h-0.057
	c-1.446,0-2.863,0-4.45,0.312l0,0c-1.276,0.255-2.523,0.51-3.742,0.794c-1.247,0.312-2.466,0.624-3.742,0.992l-0.454,0.142
	c-1.729,0.51-3.43,0.992-4.989,1.474l0,0c-1.729,0.539-3.402,1.049-4.961,1.559c-2.778,0.935-5.159,2.126-7.483,3.288
	c-1.984,0.992-3.94,1.956-6.066,2.721l-1.531,0.567c-2.891,0.992-3.855,1.332-7.313,3.6l-0.028,0.028
	c-0.822,0.567-1.502,1.162-2.154,1.786c-0.624,0.652-1.191,1.361-1.757,2.154c-1.502,2.126-2.381,3.855-2.948,5.669
	c-0.567,1.814-0.794,3.685-1.049,6.123c-0.227,2.154-0.624,3.742-1.02,5.471c-0.198,0.85-0.425,1.729-0.624,2.693
	c-0.454,2.324-0.482,5.584-0.227,8.958c0.312,4.394,1.049,8.986,1.701,11.877c0.028,0.17,0.113,0.34,0.255,0.482
	c0.397,0.369,1.02,0.369,1.417-0.028c6.406-6.406,21.827-15.194,39.09-21.09C162.541,103.867,177.055,101.06,189.215,102.506
	L189.215,102.506z"/>
<path d="M225.811,89.693c-1.786-1.162-3.005-1.843-4.365-3.572c5.868,3.09,12.189,4.961,12.983,12.869
	c0.34,3.317-0.17,1.701-1.247-0.567C231.083,94.087,229.893,92.415,225.811,89.693L225.811,89.693z"/>
</svg>
